<?xml version="1.0" encoding="UTF-8"?>
<svg width="282px" height="336px" viewBox="0 0 282 336" version="1.1" xmlns="http://www.w3.org/2000/svg" xmlns:xlink="http://www.w3.org/1999/xlink">
    <title>Group 8</title>
    <defs>
        <linearGradient x1="50%" y1="0%" x2="50%" y2="100%" id="linearGradient-1">
            <stop stop-color="#E02020" offset="0%"></stop>
            <stop stop-color="#FA6400" offset="16.7194618%"></stop>
            <stop stop-color="#F7B500" offset="33.3898731%"></stop>
            <stop stop-color="#6DD400" offset="50.0513863%"></stop>
            <stop stop-color="#0091FF" offset="66.5668601%"></stop>
            <stop stop-color="#6236FF" offset="83.3200233%"></stop>
            <stop stop-color="#B620E0" offset="100%"></stop>
        </linearGradient>
    </defs>
    <g id="Page-1" stroke="none" stroke-width="1" fill="none" fill-rule="evenodd">
        <g id="iPhone-8-Copy" transform="translate(-40.000000, -159.000000)">
            <g id="Group-8" transform="translate(42.000000, 161.000000)">
                <path d="M145.5,208.096061 C233.833333,208.096061 278,227.901862 278,267.513464 C278,307.125067 237.88282,328.485932 157.648459,331.596061 C61.2161528,331.596061 13,317.929394 13,290.596061 C13,263.262727 41.3601549,250.729795 145.5,257.721944 C197.29341,261.199453 138.527149,254.839149 86.6429292,254.839149 C56.9878858,254.839149 45,240.000464 45,208.096061 C45,175.608433 105.558062,167.596061 145.5,167.596061 C114.750284,167.596061 101.300866,158.490473 105,130.39026 C108.699134,102.290046 132.207105,87.1574162 168.869546,70 C174.580652,134.39026 238.578962,132.696198 238.578962,167.596061 C238.578962,190.862635 220.371714,203.52529 183.957218,205.584026 C121.653721,209.106426 83.0970105,208.096061 145.5,208.096061 Z" id="Path-3-Copy-3" stroke="#000000" stroke-width="4" fill="#FFEBEB" stroke-linecap="round"></path>
                <path d="M145.023273,208.096061 C233.356606,208.096061 277.523273,227.901862 277.523273,267.513464 C277.523273,307.125067 237.406092,328.485932 157.171731,331.596061 C150.956571,331.596061 144.941698,331.53929 139.127111,331.425749 C216.726642,327.771879 255.523273,306.467658 255.523273,267.513464 C255.523273,228.742382 213.211069,208.945498 128.586661,208.122813 L139.557228,208.09875 C141.285362,208.096061 143.106701,208.096061 145.023273,208.096061 Z M168.392819,70 C174.103925,134.39026 238.102234,132.696198 238.102234,167.596061 C238.102234,190.862635 219.894987,203.52529 183.480491,205.584026 L176.65909,205.957055 C151.474776,207.288067 130.910281,207.867689 120.55212,208.096976 L119.491254,208.210695 L117,208.210695 C127.656763,207.98261 131.397374,207.255188 159.618587,205.688344 L161.480491,205.584026 C197.894987,203.52529 216.102234,190.862635 216.102234,167.596061 C216.102234,134.658126 171.469534,129.983915 160.259274,75.9194628 C166.526197,72.4998037 161.006322,73.4567581 168.392819,70 Z" id="Shape" fill="#F6CBCB"></path>
                <path d="M145.5,208.096061 C233.833333,208.096061 278,227.901862 278,267.513464 C278,307.125067 237.88282,328.485932 157.648459,331.596061 C61.2161528,331.596061 13,317.929394 13,290.596061 C13,263.262727 41.3601549,250.729795 145.5,257.721944 C197.29341,261.199453 138.527149,254.839149 86.6429292,254.839149 C56.9878858,254.839149 45,240.000464 45,208.096061 C45,175.608433 105.558062,167.596061 145.5,167.596061 C114.750284,167.596061 101.300866,158.490473 105,130.39026 C108.699134,102.290046 132.207105,87.1574162 168.869546,70 C174.580652,134.39026 238.578962,132.696198 238.578962,167.596061 C238.578962,190.862635 220.371714,203.52529 183.957218,205.584026 C121.653721,209.106426 83.0970105,208.096061 145.5,208.096061 Z" id="Path-3-Copy-4" stroke="#000000" stroke-width="4" stroke-linecap="round"></path>
                <g id="Group-7" transform="translate(144.000000, 122.000000)">
                    <path d="M13.5,-8.16235968e-13 C18.1944204,-8.16235968e-13 22,5.82029825 22,13 C22,13.3368029 21.9916255,13.6706143 21.9751776,14.0009737 C21.6413648,7.28756507 17.9744249,2 13.5,2 C9.02557514,2 5.35863524,7.28756507 5.02477278,14.0000243 C5.00837451,13.6706143 5,13.3368029 5,13 C5,5.82029825 8.80557963,-8.16235968e-13 13.5,-8.16235968e-13 Z" id="Combined-Shape" fill="#000000"></path>
                    <g id="Group-6" transform="translate(0.000000, 2.000000)" fill="#000000">
                        <path d="M5.54151436,8 C3.68022807,6.58360816 2.16638995,4.58360816 1,2 C2.06352052,3.26799689 2.88306645,4.1660355 3.45863779,4.69411583 C3.99417756,5.18546765 4.8412983,5.81657727 6,6.58744468 L5.54151436,8 Z" id="Path-9"></path>
                        <path d="M5.65739627,11 C3.45683936,9.6754337 1.5710406,7.6754337 0,5 C1.30931439,6.25592523 2.30931439,7.13769718 3,7.64531585 C3.64264773,8.11762913 4.64264773,8.70575511 6,9.40969377 L5.65739627,11 Z" id="Path-9-Copy"></path>
                        <path d="M6.47654794,6 C4.60493776,4.55630298 3.11275511,2.55630298 2,0 C3.05316435,1.2715865 3.86753219,2.17446216 4.44310353,2.70862696 C4.9786433,3.20564006 5.83094213,3.84953126 7,4.64030056 L6.47654794,6 Z" id="Path-9-Copy-2"></path>
                    </g>
                    <ellipse id="Oval" fill="#FFFFFF" cx="13.5" cy="14" rx="8.5" ry="13"></ellipse>
                    <circle id="Oval" fill="#000000" cx="16" cy="20" r="4"></circle>
                    <circle id="Oval" fill="#FFFFFF" cx="14" cy="18" r="2"></circle>
                    <path d="M34.5,1 C38.6421356,1 42,6.14872538 42,12.5 C42,13.0082673 41.9784957,13.5088332 41.936806,13.9996754 C41.4571734,8.357121 38.3104324,4 34.5,4 C30.6895676,4 27.5428266,8.357121 27.0632787,13.999327 C27.0215043,13.5088332 27,13.0082673 27,12.5 C27,6.14872538 30.3578644,1 34.5,1 Z" id="Combined-Shape" fill="#000000"></path>
                    <g id="Group-5" transform="translate(40.000000, 2.000000)" fill="#000000">
                        <path d="M4.63321149,6.5 C3.14418246,5.55573877 1.93311196,4.22240544 1,2.5 C1.85081642,3.34533126 2.50645316,3.94402366 2.96691023,4.29607722 C3.39534205,4.6236451 4.07303864,5.04438484 5,5.55829646 L4.63321149,6.5 Z" id="Path-9-Copy-3" transform="translate(3.000000, 4.500000) scale(-1, 1) translate(-3.000000, -4.500000) "></path>
                        <path d="M5.27159751,9 C3.80455957,7.89619475 2.5473604,6.22952809 1.5,4 C2.37287626,5.04660436 3.03954293,5.78141432 3.5,6.20442988 C3.92843182,6.59802428 4.59509849,7.08812926 5.5,7.67474481 L5.27159751,9 Z" id="Path-9-Copy-4" transform="translate(3.500000, 6.500000) scale(-1, 1) translate(-3.500000, -6.500000) "></path>
                        <path d="M3.58123835,5 C2.08395021,3.79691915 0.89020409,2.13025249 0,0 C0.842531479,1.05965542 1.49402575,1.8120518 1.95448282,2.25718913 C2.38291464,2.67136672 3.0647537,3.20794272 4,3.86691714 L3.58123835,5 Z" id="Path-9-Copy-5" transform="translate(2.000000, 2.500000) scale(-1, 1) translate(-2.000000, -2.500000) "></path>
                    </g>
                    <ellipse id="Oval-Copy" fill="#FFFFFF" cx="34.5" cy="13.5" rx="7.5" ry="11.5"></ellipse>
                    <circle id="Oval-Copy-3" fill="#000000" cx="36" cy="19" r="4"></circle>
                    <circle id="Oval" fill="#FFFFFF" cx="34" cy="17" r="2"></circle>
                    <g id="Group-4" transform="translate(13.000000, 30.000000)" fill="#EA51B4" stroke="#000000" stroke-linejoin="round">
                        <g id="Group-2">
                            <path d="M0,9.07714812 C5.29114437,16.1994406 10.9786444,19.0507621 17.0625,17.6311128 C23.1463556,16.2114635 26.5487703,11.8844227 27.2697439,4.64999041 C23.0401523,7.78453969 18.8836898,9.661999 14.8003565,10.2823683 C10.7170231,10.9027377 5.78357099,10.5009976 0,9.07714812 Z" id="Path-10"></path>
                            <path d="M0,9.07714812 C3.89202364,8.78638767 7.31699202,6.18619728 10.2749051,1.27657694 C12.1951476,3.80906376 13.8563509,4.93353492 15.258515,4.64999041 C17.4041296,4.15713525 17.9931894,0 17.9931894,0 C20.1738379,2.70126093 23.2660228,4.25125773 27.2697439,4.64999041 C25.6139061,6.88958874 21.8045235,8.76346481 15.8415962,10.2716186 C9.87866876,11.7797724 4.59813671,11.3816156 0,9.07714812 Z" id="Path-11"></path>
                        </g>
                    </g>
                    <ellipse id="Oval" fill="#000000" transform="translate(28.500000, 40.500000) rotate(-11.000000) translate(-28.500000, -40.500000) " cx="28.5" cy="40.5" rx="5.5" ry="1.5"></ellipse>
                </g>
                <g id="Group-4">
                    <path d="M163.064842,65.2508714 C186.89669,65.2508714 186.565451,86.3526957 228.468469,68.9263479 C222.830816,88.0579978 212.203963,101.353186 196.587911,108.811911 C185.56859,114.075091 174.249068,116.151074 162.629345,115.039859 C161.652969,120.170827 159.848858,125.838629 157.084398,132.05768 C147.143811,124.075591 138.823793,119.02521 132.124345,116.906538 C121.182502,113.134016 115.711581,114.854332 115.711581,122.067487 L102.156652,82.6624587 C112.527343,77.268019 124.424825,74.9733383 134.96725,76.1443523 C138.921012,68.8827467 148.287562,65.2508714 163.064842,65.2508714 Z" id="Combined-Shape" stroke="#000000" stroke-width="3" fill="#B7D7E3"></path>
                    <path d="M228.415182,69 C222.777529,88.13165 212.150677,101.426838 196.534624,108.885564 C185.515303,114.148743 174.195782,116.224726 162.576059,115.113511 C161.599683,120.244479 159.795571,125.912281 157.031112,132.131332 C147.090524,124.149243 138.770507,119.098862 132.071059,116.98019 C121.129216,113.207668 115.658294,114.927984 115.658294,122.141139 L111.951346,111.365527 C114.160508,108.394999 119.200412,108.266553 127.071059,110.98019 C133.770507,113.098862 142.090524,118.149243 152.031112,126.131332 C154.795571,119.912281 156.599683,114.244479 157.576059,109.113511 C169.195782,110.224726 180.515303,108.148743 191.534624,102.885564 C204.531856,96.6776701 214.072958,86.4267286 220.157929,72.1327391 C222.715255,71.2661935 225.460203,70.228897 228.415182,69 Z" id="Combined-Shape" fill="#85BDD2"></path>
                    <path d="M163.064842,65.2508714 C186.89669,65.2508714 186.565451,86.3526957 228.468469,68.9263479 C222.830816,88.0579978 212.203963,101.353186 196.587911,108.811911 C185.56859,114.075091 174.249068,116.151074 162.629345,115.039859 C161.652969,120.170827 159.848858,125.838629 157.084398,132.05768 C147.143811,124.075591 138.823793,119.02521 132.124345,116.906538 C121.182502,113.134016 115.711581,114.854332 115.711581,122.067487 L102.156652,82.6624587 C112.527343,77.268019 124.424825,74.9733383 134.96725,76.1443523 C138.921012,68.8827467 148.287562,65.2508714 163.064842,65.2508714 Z" id="Combined-Shape" stroke="#000000" stroke-width="3"></path>
                    <path d="M74.4089493,147.022532 C84.9422203,139.35868 94.3857771,133.488604 102.73962,129.412303 C129.198173,116.501715 126.705922,95.7258286 126.772431,69.6455341 C133.272659,67.8644068 127.753354,69.9023824 110.214517,75.7594611 C92.6756799,81.6165397 80.7404907,105.370896 74.4089493,147.022532 Z" id="Path-15-Copy-3" stroke="#000000" stroke-width="3" fill="#ADD9B2" transform="translate(101.908949, 108.022532) rotate(4.000000) translate(-101.908949, -108.022532) "></path>
                    <path d="M137.551346,52.902 L137.529096,53.2208626 C135.717108,78.8711584 136.463183,99.4636249 109.441432,110.386774 C100.82359,113.870411 90.9935617,119.067438 79.951346,125.977857 C80.8720347,121.87356 81.8360005,117.951128 82.8432435,114.21056 C90.7343526,109.625325 97.9335324,106.017497 104.441432,103.386774 C128.518442,93.6539938 130.549949,76.2445249 131.988593,54.4205499 C134.241571,53.8205456 136.034033,53.3319778 137.366154,52.9550097 L137.551346,52.902 Z M137.568687,52.8975469 L137.551346,52.902 L137.584819,52.4420375 L137.584819,52.4420375 C141.153484,51.7274255 141.148107,51.879262 137.568687,52.8975469 Z" id="Combined-Shape" fill="#7DC285"></path>
                    <path d="M69.8283049,149 C81.2761155,141.675966 90.9877069,136.910611 98.9630794,134.703936 C103.619743,133.415501 107.421966,131.906712 110.542898,130.20878 C123.660687,123.072093 124.742396,112.593891 126.645371,101.091778 C114.53896,106.48027 102.929533,110.200501 91.8170892,112.252472 C80.7046455,114.304442 73.3750507,126.553618 69.8283049,149 Z" id="Path-15-Copy-4" stroke="#000000" stroke-width="3" fill="#FBA6D3"></path>
                    <path d="M125.768412,101 C123.865437,112.502112 122.783728,122.980315 109.665939,130.117002 C106.545007,131.814934 102.742784,133.323723 98.0861204,134.612158 C90.110748,136.818833 80.3991565,141.584188 68.951346,148.908222 C69.5504551,145.116624 70.2575013,141.615987 71.0724846,138.406309 C78.6506886,134.138516 85.3218827,131.207043 91.0861204,129.612158 C95.7427841,128.323723 99.5450071,126.814934 102.665939,125.117002 C112.446109,119.796135 115.535809,112.617827 117.263585,104.542577 C120.070256,103.455289 122.905437,102.274293 125.768412,101 Z" id="Combined-Shape" fill="#D676A9"></path>
                    <path d="M69.8283049,149 C81.2761155,141.675966 90.9877069,136.910611 98.9630794,134.703936 C103.619743,133.415501 107.421966,131.906712 110.542898,130.20878 C123.660687,123.072093 124.742396,112.593891 126.645371,101.091778 C114.53896,106.48027 102.929533,110.200501 91.8170892,112.252472 C80.7046455,114.304442 73.3750507,126.553618 69.8283049,149 Z" id="Path-15-Copy-4" stroke="#000000" stroke-width="3"></path>
                    <path d="M65.8444901,184 C75.9271125,178.133904 84.9666422,173.640806 92.9630794,170.520707 C118.289647,160.638631 116.493098,146.860027 116.556761,126.897541 C112.852113,129.793421 102.605556,133.482935 85.8170892,137.966084 C69.0286224,142.449233 62.3710894,157.793872 65.8444901,184 Z" id="Path-15-Copy-2" stroke="#000000" stroke-width="3" fill="#A8E1E8"></path>
                    <path d="M116.513431,126 C116.449769,145.962486 118.246317,159.74109 92.9197497,169.623166 C84.9233125,172.743265 75.8837828,177.236363 65.8011604,183.102459 C65.3368792,179.599548 65.0536077,176.2907 64.951346,173.175914 C72.9870237,168.719585 80.3097572,165.202293 86.9197497,162.623166 C107.675158,154.524693 110.214715,143.809317 110.490345,129.218118 C113.249703,128.054705 115.257501,126.981746 116.513431,126 Z" id="Combined-Shape" fill="#77B3BB"></path>
                    <path d="M65.8444901,184 C75.9271125,178.133904 84.9666422,173.640806 92.9630794,170.520707 C118.289647,160.638631 116.493098,146.860027 116.556761,126.897541 C112.852113,129.793421 102.605556,133.482935 85.8170892,137.966084 C69.0286224,142.449233 62.3710894,157.793872 65.8444901,184 Z" id="Path-15-Copy-2" stroke="#000000" stroke-width="3"></path>
                    <path d="M26.2420357,234.178943 C56.5256932,221.738309 76.5537138,212.777043 86.3260973,207.295145 C117.712472,189.688701 115.822316,173.733296 115.904904,148.469456 C111.676776,160.32989 98.6946363,169.096967 76.9584855,174.770688 C55.2223347,180.444408 38.3168514,200.24716 26.2420357,234.178943 Z" id="Path-15-Copy" stroke="#000000" stroke-width="3" fill="#C475B7"></path>
                    <path d="M115.614215,147 C115.531627,172.263841 117.421782,188.219245 86.0354076,205.825689 C76.2630241,211.307588 56.2350035,220.268854 25.951346,232.709488 C27.1382308,229.374189 28.3717884,226.175401 29.6520188,223.113125 C55.1040622,212.5268 72.2315248,204.764299 81.0354076,199.825689 C105.886452,185.885292 109.876021,172.979952 110.500996,155.669653 C112.804272,152.991498 114.508555,150.101515 115.614215,147 Z" id="Combined-Shape" fill="#AA499A"></path>
                    <path d="M26.2420357,234.178943 C56.5256932,221.738309 76.5537138,212.777043 86.3260973,207.295145 C117.712472,189.688701 115.822316,173.733296 115.904904,148.469456 C111.676776,160.32989 98.6946363,169.096967 76.9584855,174.770688 C55.2223347,180.444408 38.3168514,200.24716 26.2420357,234.178943 Z" id="Path-15-Copy" stroke="#000000" stroke-width="3"></path>
                    <path d="M3.63797881e-12,268.212847 C53.0514749,265.365829 87.7229012,241.461547 104.014279,196.5 C91.0790036,207.340071 73.7432904,215.596967 52.0071396,221.270688 C30.2709887,226.944408 12.9352755,242.591795 3.63797881e-12,268.212847 Z" id="Path-15" stroke="#000000" stroke-width="3" fill="#FDD965" stroke-linejoin="round"></path>
                    <path d="M104.014279,196.5 C87.7229012,241.461547 53.0514749,265.365829 0,268.212847 C1.63200681,264.980312 3.33406044,261.906539 5.1061609,258.991529 C46.2772194,254.68984 75.4194184,236.60587 92.5333334,204.74159 C96.6830721,202.183537 100.51014,199.436553 104.014279,196.5 Z" id="Combined-Shape" fill="#FCCE37"></path>
                    <path d="M0,268.212847 C53.0514749,265.365829 87.7229012,241.461547 104.014279,196.5 C91.0790036,207.340071 73.7432904,215.596967 52.0071396,221.270688 C30.2709887,226.944408 12.9352755,242.591795 0,268.212847 Z" id="Path-15" stroke="#000000" stroke-width="3" stroke-linejoin="round"></path>
                    <path d="M129.759858,98.9856339 C125.234455,88.8775283 121.070597,74.9508306 117.268284,57.2055409 C113.465971,39.4602512 110.701711,21.0536156 108.975505,1.98563395 C118.584764,20.1578869 128.263954,35.5534991 138.013076,48.1724706 C147.762198,60.791442 157.532174,70.7291632 167.323005,77.9856339 C168.012641,86.1681039 164.228104,92.5425456 155.969392,97.108959 C147.710681,101.675372 138.974169,102.300931 129.759858,98.9856339 Z" id="Path-7" stroke="#000000" stroke-width="4" fill="url(#linearGradient-1)" stroke-linejoin="round" transform="translate(138.189117, 51.531523) rotate(3.000000) translate(-138.189117, -51.531523) "></path>
                    <path d="M140.637961,100.721645 C135.17709,91.5956564 129.488766,78.5712573 123.572987,61.6484477 C117.657209,44.7256381 112.51804,26.7766626 108.155479,7.80152138 L112.493435,7.57417879 C120.646253,28.8320219 127.941833,46.0489715 134.380175,59.2250279 C140.818517,72.4010842 148.204053,85.2290145 156.536783,97.7088187 L140.637961,100.721645 Z" id="Path-8" fill-opacity="0.25" fill="#FFFFFF" transform="translate(132.346131, 54.147912) rotate(3.000000) translate(-132.346131, -54.147912) "></path>
                    <path d="M129.759858,98.9856339 C125.234455,88.8775283 121.070597,74.9508306 117.268284,57.2055409 C113.465971,39.4602512 110.701711,21.0536156 108.975505,1.98563395 C118.584764,20.1578869 128.263954,35.5534991 138.013076,48.1724706 C147.762198,60.791442 157.532174,70.7291632 167.323005,77.9856339 C168.012641,86.1681039 164.228104,92.5425456 155.969392,97.108959 C147.710681,101.675372 138.974169,102.300931 129.759858,98.9856339 Z" id="Path-7" stroke="#000000" stroke-width="4" stroke-linejoin="round" transform="translate(138.189117, 51.531523) rotate(3.000000) translate(-138.189117, -51.531523) "></path>
                </g>
            </g>
        </g>
    </g>
</svg>