<?xml version="1.0" encoding="UTF-8"?>
<svg width="375px" height="667px" viewBox="0 0 375 667" version="1.1" xmlns="http://www.w3.org/2000/svg" xmlns:xlink="http://www.w3.org/1999/xlink">
    <title>Group 4</title>
    <g id="Page-1" stroke="none" stroke-width="1" fill="none" fill-rule="evenodd">
        <g id="iPhone-8-Copy-3">
            <g id="Group-4" transform="translate(0.000000, 321.000000)">
                <path d="M186.99522,81 C262.417874,81 329.912825,91.9692347 375.038158,109.240501 L375.26722,340 L0.035,339.999 L0.018,225.243 L0.0212449266,212.165876 L0.016,212.163 L-1.01962883e-12,108.842147 C45.1188456,91.8007432 112.154067,81 186.99522,81 Z" id="Combined-Shape" fill="#000000"></path>
                <path d="M186.99522,85 C262.417874,85 329.912825,95.9692347 375.038158,113.240501 L375.26722,344 L0.035,343.999 L0.018,229.243 L0.0212449266,216.165876 L0.016,216.163 L-1.01962883e-12,112.842147 C45.1188456,95.8007432 112.154067,85 186.99522,85 Z" id="Combined-Shape" fill="#C0A4C4"></path>
                <path d="M148.221782,238.942546 C153.587795,242.721347 167.184473,270.403442 167.184473,275.887685 L186.266165,270.302993 C187.584968,260.2368 194.656066,248.84825 207.479458,236.137343 C192.519308,242.89978 183.706939,249.255233 181.042353,255.203703 C184.524894,234.326358 186.266165,223.887685 186.266165,223.887685 C177.382666,233.924259 172.043926,244.362932 170.249947,255.203703 C168.274002,244.238764 142.855769,235.163745 148.221782,238.942546 Z" id="Path-Copy-2" fill="#A27DA8"></path>
                <path d="M253.541554,277.569406 C295.54062,283.47199 336.560597,287.770637 376.002745,290.548135 L376,347 L0,347 L-0.000383217121,222.026534 C73.6264741,245.035842 160.165247,264.446222 253.541554,277.569406 Z" id="Combined-Shape" fill="#2E2E2E"></path>
                <path d="M253.541937,281.569406 C295.541003,287.47199 336.56098,291.770637 376.003128,294.548135 L376.000383,351 L0.000383217121,351 L-1.56319402e-13,226.026534 C73.6268573,249.035842 160.16563,268.446222 253.541937,281.569406 Z" id="Combined-Shape" fill="#B5DBDB"></path>
                <path d="M46,290 C34.3802478,296.017078 22.7135811,296.603372 11,291.758882" id="Path" stroke="#000000" stroke-width="2" stroke-linecap="round"></path>
                <path d="M103,274 C97.6881133,276.406831 92.3547799,276.641349 87,274.703553" id="Path-Copy-6" stroke="#000000" stroke-width="2" stroke-linecap="round"></path>
                <path d="M174,328 C164.040212,332.813662 154.040212,333.282697 144,329.407106" id="Path-Copy-2" stroke="#000000" stroke-width="2" stroke-linecap="round"></path>
                <path d="M37,331 C27.0402124,335.813662 17.0402124,336.282697 7,332.407106" id="Path-Copy-8" stroke="#000000" stroke-width="2" stroke-linecap="round"></path>
                <path d="M332,337 C325.692135,340.610247 319.358801,340.962023 313,338.055329" id="Path-Copy-4" stroke="#000000" stroke-width="2" stroke-linecap="round"></path>
                <path d="M250,318 C243.692135,321.610247 237.358801,321.962023 231,319.055329" id="Path-Copy-10" stroke="#000000" stroke-width="2" stroke-linecap="round"></path>
                <path d="M48,290 C56.1281298,299.54566 65.7947965,303.834418 77,302.866276" id="Path-Copy" stroke="#000000" stroke-width="2" stroke-linecap="round"></path>
                <path d="M104,274 C107.643644,278.405689 111.976978,280.385116 117,279.938281" id="Path-Copy-7" stroke="#000000" stroke-width="2" stroke-linecap="round"></path>
                <path d="M175,328 C182.007008,336.077097 190.340342,339.706046 200,338.886849" id="Path-Copy-3" stroke="#000000" stroke-width="2" stroke-linecap="round"></path>
                <path d="M38,331 C45.0070085,339.077097 53.3403418,342.706046 63,341.886849" id="Path-Copy-9" stroke="#000000" stroke-width="2" stroke-linecap="round"></path>
                <path d="M333,337 C337.484485,342.139971 342.817819,344.449302 349,343.927995" id="Path-Copy-5" stroke="#000000" stroke-width="2" stroke-linecap="round"></path>
                <path d="M251,318 C255.484485,323.139971 260.817819,325.449302 267,324.927995" id="Path-Copy-11" stroke="#000000" stroke-width="2" stroke-linecap="round"></path>
                <path d="M309.704388,150.482418 C314.261825,153.663541 321.781224,168.96485 321.781224,173.581673 L337.579401,176.88271 C338.464452,169.239201 342.221767,162.025391 348.851346,155.241279 C341.616889,157.442519 336.868123,161.046951 334.60505,166.054576 C336.58795,150.018192 337.579401,142 337.579401,142 C329.924497,151.58699 326.00126,158.977528 325.809691,164.171614 C324.131491,154.940954 305.146952,147.301294 309.704388,150.482418 Z" id="Path" fill="#A27DA8"></path>
                <g id="Group-3" transform="translate(295.000000, 215.000000)" fill="#A27DA8">
                    <circle id="Oval" cx="8.5" cy="32.5" r="8.5"></circle>
                    <circle id="Oval-Copy-24" cx="26.5" cy="60.5" r="3.5"></circle>
                    <circle id="Oval-Copy-25" cx="40.5" cy="28.5" r="3.5"></circle>
                    <circle id="Oval-Copy-30" cx="64" cy="31" r="6"></circle>
                    <circle id="Oval-Copy-26" cx="61.5" cy="53.5" r="3.5"></circle>
                    <circle id="Oval-Copy-27" cx="73.5" cy="10.5" r="3.5"></circle>
                    <circle id="Oval-Copy-28" cx="30.5" cy="3.5" r="3.5"></circle>
                </g>
                <g id="Group-3-Copy" transform="translate(77.000000, 142.500000) scale(-1, 1) translate(-77.000000, -142.500000) translate(50.000000, 120.000000)" fill="#A27DA8">
                    <circle id="Oval" cx="7" cy="23" r="7"></circle>
                    <circle id="Oval-Copy-24" cx="17.5" cy="42.5" r="2.5"></circle>
                    <circle id="Oval-Copy-25" cx="26.5" cy="20.5" r="2.5"></circle>
                    <circle id="Oval-Copy-30" cx="44.5" cy="22.5" r="4.5"></circle>
                    <circle id="Oval-Copy-26" cx="44.5" cy="38.5" r="2.5"></circle>
                    <circle id="Oval-Copy-27" cx="51.5" cy="6.5" r="2.5"></circle>
                    <circle id="Oval-Copy-28" cx="20.5" cy="2.5" r="2.5"></circle>
                </g>
                <path d="" id="Path-6" stroke="#979797"></path>
                <circle id="Oval" fill="#AA0971" cx="222.5" cy="0.5" r="1"></circle>
            </g>
        </g>
    </g>
</svg>