<?xml version="1.0" encoding="UTF-8"?>
<svg width="1225px" height="240px" viewBox="0 0 1225 240" version="1.1" xmlns="http://www.w3.org/2000/svg" xmlns:xlink="http://www.w3.org/1999/xlink">
    <title>Group 9</title>
    <g id="Page-1" stroke="none" stroke-width="1" fill="none" fill-rule="evenodd">
        <g id="Group-9" fill="#FFFFFF" stroke="#000000" stroke-width="3">
            <path d="M360,1.5 C348.378233,1.5 337.58532,4.33413739 328.654859,9.19298701 C319.539107,14.1526498 312.363361,21.2213439 308.273276,29.537603 C308.077309,29.9360566 307.887935,30.3383724 307.705152,30.7443927 C307.28094,30.5897767 306.858068,30.4390367 306.436429,30.29303 C297.669755,27.2572762 287.218903,25.5 276,25.5 C261.944041,25.5 249.092832,28.2566433 239.255506,32.8324257 C229.626572,37.3112761 222.851966,43.510901 220.999907,50.6356699 C220.910152,50.9809498 220.831553,51.3299621 220.763949,51.6825129 C220.394377,51.7048404 220.023967,51.728705 219.652698,51.7546441 C205.859347,52.7183322 193.638079,56.35264 184.904923,61.6829205 C176.671822,66.7079921 171.5,73.2392745 171.5,80.5 C171.5,84.3115495 172.940111,87.9353043 175.502632,91.2456091 C178.278189,94.8311188 182.356179,98.0439133 187.402602,100.744192 C197.53646,106.166695 211.540099,109.5 227,109.5 C228.499136,109.5 229.984566,109.4686 231.454115,109.406953 L231.523336,111.444449 C231.908401,119.225335 237.019102,126.164219 244.938132,131.189937 C253.065825,136.348082 264.165723,139.498898 276.493599,139.497858 C276.907438,139.497823 277.319892,139.494237 277.730896,139.487142 C277.796429,139.885526 277.871613,140.281463 277.958398,140.674228 C280.068005,150.221793 289.183707,158.581582 302.392713,164.624792 C315.83741,170.775832 333.569968,174.5 353,174.5 C373.991998,174.5 393.003529,170.154292 406.762571,163.096082 C413.651121,159.562345 419.213565,155.354943 423.001898,150.663243 C426.524938,146.300098 428.5,141.523241 428.5,136.5 C428.5,135.981111 428.478975,135.464747 428.435279,134.951596 C428.396636,134.497797 428.340094,134.044519 428.266854,133.592039 C428.728512,133.516215 429.19245,133.435361 429.656803,133.349391 C442.088093,131.047881 452.92928,125.429337 460.608336,117.705988 C468.037616,110.233857 472.5,100.787135 472.5,90.5 C472.5,80.1377228 467.97223,70.6283481 460.445103,63.1307457 C452.669994,55.3861357 441.702189,49.7830468 429.144419,47.5580332 C428.82327,47.5011313 428.502338,47.4466615 428.181656,47.3946136 C428.114625,47.0844108 428.040826,46.7775164 427.958421,46.4736949 C426.22304,40.0754801 420.505392,34.4297625 411.68771,29.4528927 C407.582352,21.1588897 400.405775,14.1110823 391.297608,9.16687971 C382.376172,4.32404054 371.60104,1.5 360,1.5 Z" id="Path-Copy-4"></path>
            <path d="M1111,1.5 C1099.37823,1.5 1088.58532,4.33413739 1079.65486,9.19298701 C1070.53911,14.1526498 1063.36336,21.2213439 1059.27328,29.537603 C1059.07731,29.9360566 1058.88794,30.3383724 1058.70515,30.7443927 C1058.28094,30.5897767 1057.85807,30.4390367 1057.43643,30.29303 C1048.66975,27.2572762 1038.2189,25.5 1027,25.5 C1012.94404,25.5 1000.09283,28.2566433 990.255506,32.8324257 C980.626572,37.3112761 973.851966,43.510901 971.999907,50.6356699 C971.910152,50.9809498 971.831553,51.3299621 971.763949,51.6825129 C971.394377,51.7048404 971.023967,51.728705 970.652698,51.7546441 C956.859347,52.7183322 944.638079,56.35264 935.904923,61.6829205 C927.671822,66.7079921 922.5,73.2392745 922.5,80.5 C922.5,84.3115495 923.940111,87.9353043 926.502632,91.2456091 C929.278189,94.8311188 933.356179,98.0439133 938.402602,100.744192 C948.53646,106.166695 962.540099,109.5 978,109.5 C979.499136,109.5 980.984566,109.4686 982.454115,109.406953 L982.523336,111.444449 C982.908401,119.225335 988.019102,126.164219 995.938132,131.189937 C1004.06582,136.348082 1015.16572,139.498898 1027.4936,139.497858 C1027.90744,139.497823 1028.31989,139.494237 1028.7309,139.487142 C1028.79643,139.885526 1028.87161,140.281463 1028.9584,140.674228 C1031.06801,150.221793 1040.18371,158.581582 1053.39271,164.624792 C1066.83741,170.775832 1084.56997,174.5 1104,174.5 C1124.992,174.5 1144.00353,170.154292 1157.76257,163.096082 C1164.65112,159.562345 1170.21356,155.354943 1174.0019,150.663243 C1177.52494,146.300098 1179.5,141.523241 1179.5,136.5 C1179.5,135.981111 1179.47898,135.464747 1179.43528,134.951596 C1179.39664,134.497797 1179.34009,134.044519 1179.26685,133.592039 C1179.72851,133.516215 1180.19245,133.435361 1180.6568,133.349391 C1193.08809,131.047881 1203.92928,125.429337 1211.60834,117.705988 C1219.03762,110.233857 1223.5,100.787135 1223.5,90.5 C1223.5,80.1377228 1218.97223,70.6283481 1211.4451,63.1307457 C1203.66999,55.3861357 1192.70219,49.7830468 1180.14442,47.5580332 C1179.82327,47.5011313 1179.50234,47.4466615 1179.18166,47.3946136 C1179.11463,47.0844108 1179.04083,46.7775164 1178.95842,46.4736949 C1177.22304,40.0754801 1171.50539,34.4297625 1162.68771,29.4528927 C1158.58235,21.1588897 1151.40577,14.1110823 1142.29761,9.16687971 C1133.37617,4.32404054 1122.60104,1.5 1111,1.5 Z" id="Path-Copy-12"></path>
            <path d="M82,132.5 C76.2639954,132.5 70.897261,134.056938 66.3133052,136.766523 C61.5738571,139.568019 57.6708137,143.600851 55.0628217,148.416589 C54.9539431,148.617637 54.8474408,148.819829 54.7433237,149.023121 C54.517407,149.070746 54.2894289,149.118909 54.0611949,149.168318 C39.5110559,152.31817 28.0011922,159.646142 23.4999633,168.986678 C23.4191918,169.154288 23.3403332,169.323259 23.2633832,169.493566 C23.0874609,169.568011 22.9104779,169.641874 22.7334318,169.716822 C16.1707085,172.494975 10.7384998,176.248241 6.99764036,180.667363 C3.50673479,184.791212 1.5,189.493594 1.5,194.5 C1.5,202.096295 6.10204348,208.969091 13.502835,214.208427 C21.2604799,219.700394 32.1031498,223.40586 44.3074276,224.293998 C44.4884359,224.30717 44.6692375,224.319686 44.8498264,224.331548 C44.9780363,224.457662 45.1067375,224.582877 45.2360163,224.706678 C53.9524908,233.05382 68.9741686,238.5 86,238.5 C106.36233,238.5 123.914115,230.72022 131.528203,219.054227 C139.3703,213.627618 144.5,204.654606 144.5,194.5 C144.5,186.286669 141.144118,178.845542 135.711063,173.429904 C130.262702,167.999009 122.726146,164.604228 114.384459,164.503719 L113.688021,164.495327 L113.245034,163.957872 C113.120175,163.806386 112.993319,163.655655 112.863883,163.505513 C112.744892,163.367485 112.625087,163.231541 112.504408,163.097212 L112.49581,161.997384 C112.359472,153.825744 108.900939,146.450243 103.394931,141.119182 C97.8881833,135.787404 90.3337997,132.5 82,132.5 Z" id="Path-Copy-5"></path>
            <path d="M833,132.5 C827.263995,132.5 821.897261,134.056938 817.313305,136.766523 C812.573857,139.568019 808.670814,143.600851 806.062822,148.416589 C805.953943,148.617637 805.847441,148.819829 805.743324,149.023121 C805.517407,149.070746 805.289429,149.118909 805.061195,149.168318 C790.511056,152.31817 779.001192,159.646142 774.499963,168.986678 C774.419192,169.154288 774.340333,169.323259 774.263383,169.493566 C774.087461,169.568011 773.910478,169.641874 773.733432,169.716822 C767.170709,172.494975 761.7385,176.248241 757.99764,180.667363 C754.506735,184.791212 752.5,189.493594 752.5,194.5 C752.5,202.096295 757.102043,208.969091 764.502835,214.208427 C772.26048,219.700394 783.10315,223.40586 795.307428,224.293998 C795.488436,224.30717 795.669237,224.319686 795.849826,224.331548 C795.978036,224.457662 796.106738,224.582877 796.236016,224.706678 C804.952491,233.05382 819.974169,238.5 837,238.5 C857.36233,238.5 874.914115,230.72022 882.528203,219.054227 C890.3703,213.627618 895.5,204.654606 895.5,194.5 C895.5,186.286669 892.144118,178.845542 886.711063,173.429904 C881.262702,167.999009 873.726146,164.604228 865.384459,164.503719 L864.688021,164.495327 L864.245034,163.957872 C864.120175,163.806386 863.993319,163.655655 863.863883,163.505513 C863.744892,163.367485 863.625087,163.231541 863.504408,163.097212 L863.49581,161.997384 C863.359472,153.825744 859.900939,146.450243 854.394931,141.119182 C848.888183,135.787404 841.3338,132.5 833,132.5 Z" id="Path-Copy-16"></path>
            <path d="M602.5,89.5 C592.632872,89.5 583.682517,92.8092808 577.160492,98.1979069 C570.723762,103.51606 566.655125,110.867122 566.504347,119.029087 L566.446962,120.229265 C566.089303,120.557852 565.830683,120.871792 565.409285,121.19298 C565.251055,121.313582 565.099893,121.412326 564.5,121.5 C554.525433,121.5 545.487538,124.88172 538.948284,130.374694 C532.512049,135.781131 528.5,143.240928 528.5,151.5 C528.5,156.533301 529.990255,161.27335 532.61316,165.430263 C535.365472,169.792268 539.361151,173.512245 544.639767,176.657888 C553.242978,187.812473 573.732769,195.5 597.5,195.5 C617.541715,195.5 635.213686,190.019284 646.322413,181.28513 C660.653795,180.376154 673.378196,176.644385 682.481679,171.123608 C691.089842,165.903215 696.5,159.083648 696.5,151.5 C696.5,146.573723 694.197484,141.955926 690.221518,137.890918 C685.910294,133.483143 679.646762,129.730038 672.067913,126.926098 C671.890746,126.860551 671.713787,126.795867 671.537045,126.732046 C671.450547,126.567206 671.363594,126.404536 671.274848,126.243593 C666.063341,116.792408 652.512504,109.391753 635.350359,106.19646 C635.133528,106.15609 634.916993,106.116553 634.700764,106.07785 C634.587433,105.891597 634.47359,105.707332 634.357792,105.524545 C628.296325,95.9565876 616.281875,89.5 602.5,89.5 Z" id="Path-Copy-14"></path>
        </g>
    </g>
</svg>