<?xml version="1.0" encoding="UTF-8"?>
<svg width="487px" height="128px" viewBox="0 0 487 128" version="1.1" xmlns="http://www.w3.org/2000/svg" xmlns:xlink="http://www.w3.org/1999/xlink">
    <title>logo</title>
    <g id="Page-1" stroke="none" stroke-width="1" fill="none" fill-rule="evenodd">
        <g id="logo" fill="#000000" fill-rule="nonzero">
            <g id="Group">
                <polygon id="Path" points="18.5 1.8 36.9 38.5 54.2 1.8 70.4 1.8 46.2 51.8 26.8 51.8 0.8 1.9 18.5 1.9"></polygon>
                <path d="M106.4,0.9 C137.8,0.9 141.5,16.7 141.5,25.6 L141.5,27.6 C141.5,36.4 137.9,52.6 106.4,52.6 L103.5,52.6 C71.9,52.6 68.3,36.4 68.3,27.6 L68.3,25.6 C68.3,16.7 71.9,0.9 103.5,0.9 L106.4,0.9 Z M125.2,26.1 C125.2,20.4 121.9,13 105,13 C87.8,13 84.8,20.4 84.8,26.1 L84.8,26.9 C84.8,32.6 88.1,40.5 105,40.5 C121.8,40.5 125.2,32.8 125.2,27.1 L125.2,26.1 Z" id="Shape"></path>
                <path d="M177.7,52.5 C150.9,52.5 146.6,35.5 146.6,26.1 L146.6,1.8 L162.3,1.8 L162.3,25.1 C162.3,31.5 165.2,39.5 178.8,39.5 C192.2,39.5 195.2,31.5 195.2,25.1 L195.2,1.8 L210.8,1.8 L210.8,26 C210.8,35.4 205.7,52.4 180.1,52.4 L177.7,52.4 L177.7,52.5 Z" id="Path"></path>
                <path d="M249.3,52.6 C220.4,52.6 215.9,36.4 215.9,27.6 L215.9,25.7 C215.9,16.6 219.8,1 249.3,1 L252.1,1 C281,1 285.5,14.8 285.5,20.7 L285.5,21.4 L268.9,21.4 C268.5,20.1 266.5,13.1 250.6,13.1 C235.6,13.1 232.2,19.8 232.2,26.1 L232.2,26.9 C232.2,32.8 236.2,40.6 250.7,40.6 C266.9,40.6 268.5,32.9 268.9,31.7 L285.5,31.7 L285.5,32.4 C285.5,38.7 280.5,52.7 252,52.7 L249.3,52.7 L249.3,52.6 Z" id="Path"></path>
                <polygon id="Path" points="306.6 20 340.2 20 340.2 1.8 355.8 1.8 355.8 51.7 340.2 51.7 340.2 32.1 306.6 32.1 306.6 51.8 291 51.8 291 1.8 306.6 1.8"></polygon>
                <polygon id="Path" points="378.9 13.2 378.9 20.6 415.2 20.6 415.2 32 378.9 32 378.9 40.2 416.8 40.2 416.8 51.8 363.5 51.8 363.5 1.8 416.1 1.8 416.1 13.1 378.9 13.1"></polygon>
                <path d="M423.3,1.8 L463.6,1.8 C480.2,1.8 485.3,7.6 485.3,14.8 L485.3,15.6 C485.3,22.8 479.3,25.5 476,26.5 C481.1,28 485.5,31.5 485.5,38 L485.5,45.3 C485.5,49.3 486,50.6 486.4,51.4 L486.4,51.7 L470.5,51.7 C470,51.1 469.8,50.4 469.8,48.5 L469.8,42.7 C469.8,36.6 467.1,33.9 459.4,33.9 L439,33.9 L439,51.6 L423.4,51.6 L423.4,1.8 L423.3,1.8 Z M462.6,23 C467.1,23 468.9,20.9 468.9,18.1 L468.9,18 C468.9,15.4 467.2,13.2 462.6,13.2 L438.9,13.2 L438.9,23 L462.6,23 Z" id="Shape"></path>
            </g>
            <g id="Group" transform="translate(107.000000, 77.000000)">
                <polygon id="Path" points="0.3 0.3 59.1 0.3 59.1 12.1 37.6 12.1 37.6 50.2 21.8 50.2 21.8 12.1 0.3 12.1 0.3 0.3"></polygon>
                <polygon id="Path" points="80.2 11.7 80.2 19.1 116.5 19.1 116.5 30.5 80.2 30.5 80.2 38.7 118.1 38.7 118.1 50.3 64.8 50.3 64.8 0.4 117.4 0.4 117.4 11.7 80.2 11.7"></polygon>
                <path d="M135.6,50.3 L119.7,50.3 L144.9,0.4 L165.2,0.4 L191.9,50.3 L175.1,50.3 L170.4,41.2 L140.1,41.2 L135.6,50.3 Z M164.6,29.9 L154.9,11.2 L145.6,29.9 L164.6,29.9 Z" id="Shape"></path>
                <polygon id="Path" points="234.1 31.4 251.4 0.3 272.8 0.3 272.8 50.2 257.4 50.2 257.4 15.6 237.7 50.2 229.3 50.2 209.6 15.6 209.6 50.2 194.6 50.2 194.6 0.3 216.8 0.3"></polygon>
            </g>
        </g>
    </g>
</svg>