<?xml version="1.0" encoding="UTF-8"?>
<svg width="375px" height="667px" viewBox="0 0 375 667" version="1.1" xmlns="http://www.w3.org/2000/svg" xmlns:xlink="http://www.w3.org/1999/xlink">
    <title>Group 4</title>
    <g id="Page-1" stroke="none" stroke-width="1" fill="none" fill-rule="evenodd">
        <g id="iPhone-8-Copy-2">
            <g id="Group-4" transform="translate(-41.000000, 405.000000)">
                <path d="M227.99522,0 C303.417874,0 370.912825,10.9692347 416.038158,28.2405008 L416.26722,259 L41.035,258.999 L41.018,144.243 L41.0212449,131.165876 L41.016,131.163 L41,27.8421471 C86.1188456,10.8007432 153.154067,0 227.99522,0 Z" id="Combined-Shape" fill="#000000"></path>
                <path d="M228.001267,3 C303.423922,3 370.918872,13.9692347 416.044206,31.2405008 L416.273267,262 L41.0410471,261.999 L41.0240471,147.243 L41.027292,134.165876 L41.0220471,134.163 L41.0060471,30.8421471 C86.1248927,13.8007432 153.160114,3 228.001267,3 Z" id="Combined-Shape" fill="#94D8A5"></path>
                <path d="M352.704388,68.4824176 C357.261825,71.6635409 364.781224,86.9648496 364.781224,91.5816728 L380.579401,94.8827103 C381.464452,87.2392013 385.221767,80.0253908 391.851346,73.2412788 C384.616889,75.4425187 379.868123,79.046951 377.60505,84.0545758 C379.58795,68.0181919 380.579401,60 380.579401,60 C372.924497,69.5869901 369.00126,76.9775281 368.809691,82.1716138 C367.131491,72.9409539 348.146952,65.3012942 352.704388,68.4824176 Z" id="Path" fill="#5FA871"></path>
                <path d="M117.742324,142.05486 C123.108337,145.833661 136.705014,173.515756 136.705014,179 L155.786707,173.415308 C157.10551,163.349115 164.176608,151.960565 177,139.249658 C162.039849,146.012094 153.227481,152.367548 150.562895,158.316018 C154.045436,137.438673 155.786707,127 155.786707,127 C146.903207,137.036574 141.564468,147.475246 139.770489,158.316018 C137.794544,147.351078 112.376311,138.27606 117.742324,142.05486 Z" id="Path-Copy-2" fill="#5FA871"></path>
                <path d="M1.44938254,207.508217 C10.8269782,214.074246 26.5928015,252.470601 26.5928015,262 L58.8063167,262 C60.6274386,246.22334 68.3586664,231.333604 82,217.330791 C67.114041,221.874282 57.3427584,229.314046 52.6861521,239.650083 C56.7662618,206.550028 58.8063167,190 58.8063167,190 C43.0552273,209.788121 34.9825915,225.042633 34.5884093,235.763537 C31.1352658,216.710903 -7.92821308,200.942188 1.44938254,207.508217 Z" id="Path-Copy" fill="#5FA871"></path>
                <g id="Group-3" transform="translate(304.000000, 179.000000)" fill="#5FA871">
                    <circle id="Oval" cx="8.5" cy="32.5" r="8.5"></circle>
                    <circle id="Oval-Copy-24" cx="26.5" cy="60.5" r="3.5"></circle>
                    <circle id="Oval-Copy-25" cx="40.5" cy="28.5" r="3.5"></circle>
                    <circle id="Oval-Copy-30" cx="64" cy="31" r="6"></circle>
                    <circle id="Oval-Copy-26" cx="61.5" cy="53.5" r="3.5"></circle>
                    <circle id="Oval-Copy-27" cx="73.5" cy="10.5" r="3.5"></circle>
                    <circle id="Oval-Copy-28" cx="30.5" cy="3.5" r="3.5"></circle>
                </g>
                <g id="Group-3-Copy" transform="translate(81.500000, 51.500000) scale(-1, 1) translate(-81.500000, -51.500000) translate(57.000000, 31.000000)" fill="#5FA871">
                    <circle id="Oval" cx="6" cy="21" r="6"></circle>
                    <circle id="Oval-Copy-24" cx="16" cy="39" r="2"></circle>
                    <circle id="Oval-Copy-25" cx="24" cy="18" r="2"></circle>
                    <circle id="Oval-Copy-30" cx="41" cy="21" r="4"></circle>
                    <circle id="Oval-Copy-26" cx="41" cy="35" r="2"></circle>
                    <circle id="Oval-Copy-27" cx="47" cy="6" r="2"></circle>
                    <circle id="Oval-Copy-28" cx="18" cy="2" r="2"></circle>
                </g>
                <g id="Group-3-Copy" transform="translate(355.000000, 37.000000) scale(-1, 1) translate(-355.000000, -37.000000) translate(343.000000, 27.000000)" fill="#5FA871">
                    <circle id="Oval" cx="3" cy="10" r="3"></circle>
                    <circle id="Oval-Copy-24" cx="8" cy="19" r="1"></circle>
                    <circle id="Oval-Copy-25" cx="12" cy="9" r="1"></circle>
                    <circle id="Oval-Copy-30" cx="20" cy="10" r="2"></circle>
                    <circle id="Oval-Copy-26" cx="20" cy="17" r="1"></circle>
                    <circle id="Oval-Copy-27" cx="23" cy="3" r="1"></circle>
                    <circle id="Oval-Copy-28" cx="9" cy="1" r="1"></circle>
                </g>
            </g>
        </g>
    </g>
</svg>