<?xml version="1.0" encoding="UTF-8"?>
<svg width="269px" height="268px" viewBox="0 0 269 268" version="1.1" xmlns="http://www.w3.org/2000/svg" xmlns:xlink="http://www.w3.org/1999/xlink">
    <title>Group 4 Copy</title>
    <g id="Page-1" stroke="none" stroke-width="1" fill="none" fill-rule="evenodd">
        <g id="iPhone-8" transform="translate(-53.000000, -229.000000)">
            <g id="Group-4-Copy" transform="translate(55.000000, 232.000000)">
                <g id="Group-2">
                    <path d="M132.5,139.015523 C220.833333,139.015523 265,158.821325 265,198.432927 C265,238.04453 224.88282,259.405395 144.648459,262.515523 C48.2161528,262.515523 0,248.848857 0,221.515523 C0,194.18219 37.8624718,180.515523 113.587415,180.515523 C165.485279,180.515523 125.766998,178.17468 74,174.491454 C46,172.499252 32,160.673942 32,139.015523 C32,106.527896 92.5580621,98.5155234 132.5,98.5155234 C101.750284,98.5155234 86.3754266,84.8488567 86.3754266,57.5155234 C88.396377,36.3292573 107.738073,17.1574162 144.400513,2.98427949e-12 C156.994683,50.7313646 225.578962,63.6156613 225.578962,98.5155234 C225.578962,121.782098 207.371714,134.444753 170.957218,136.503489 C108.653721,140.025889 70.0970105,139.015523 132.5,139.015523 Z" id="Path-3-Copy-2" fill="#9A7663"></path>
                    <path d="M132.5,139.015523 C220.833333,139.015523 265,158.821325 265,198.432927 C265,238.04453 224.88282,259.405395 144.648459,262.515523 C138.43722,262.515523 132.426015,262.458825 126.614845,262.345427 C204.20703,258.689332 243,237.385283 243,198.432927 C243,159.657399 200.678092,139.860421 116.034277,139.041994 C120.453023,139.026777 125.914282,139.015523 132.5,139.015523 Z M144.400513,-6.53699317e-13 C156.994683,50.7313646 225.578962,63.6156613 225.578962,98.5155234 C225.578962,121.782098 207.371714,134.444753 170.957218,136.503489 C142.712966,138.10031 119.348943,138.765598 108.058691,139.015778 C92.1302781,139.022977 83.3105119,139.096487 80.1322324,139.131478 L80.092,139.131 L80.1881428,139.130158 C86.5093623,139.028942 113.093852,138.495571 147.095315,136.607806 L148.957218,136.503489 C185.371714,134.444753 203.578962,121.782098 203.578962,98.5155234 C203.578962,65.2931135 142.793297,50.7325212 140.400506,1.91440463 C141.711273,1.27237412 143.044038,0.634808259 144.400513,-6.53699317e-13 Z" id="Combined-Shape" fill="#7F5D4A"></path>
                    <path d="M132.5,139.015523 C220.833333,139.015523 265,158.821325 265,198.432927 C265,238.04453 224.88282,259.405395 144.648459,262.515523 C48.2161528,262.515523 0,248.848857 0,221.515523 C0,194.18219 37.8624718,180.515523 113.587415,180.515523 C165.485279,180.515523 125.766998,178.17468 74,174.491454 C46,172.499252 32,160.673942 32,139.015523 C32,106.527896 92.5580621,98.5155234 132.5,98.5155234 C101.750284,98.5155234 86.3754266,84.8488567 86.3754266,57.5155234 C88.396377,36.3292573 107.738073,17.1574162 144.400513,2.98427949e-12 C156.994683,50.7313646 225.578962,63.6156613 225.578962,98.5155234 C225.578962,121.782098 207.371714,134.444753 170.957218,136.503489 C108.653721,140.025889 70.0970105,139.015523 132.5,139.015523 Z" id="Path-3-Copy-2" stroke="#000000" stroke-width="4" stroke-linecap="round"></path>
                </g>
                <g id="Group-3" transform="translate(120.000000, 39.000000)">
                    <ellipse id="Oval" fill="#FFFFFF" cx="8.5" cy="13" rx="8.5" ry="13"></ellipse>
                    <circle id="Oval" fill="#000000" cx="11" cy="19" r="4"></circle>
                    <circle id="Oval" fill="#FFFFFF" cx="9" cy="17" r="2"></circle>
                    <ellipse id="Oval-Copy" fill="#FFFFFF" cx="29.5" cy="12.5" rx="7.5" ry="11.5"></ellipse>
                    <circle id="Oval-Copy-3" fill="#000000" cx="31" cy="18" r="4"></circle>
                    <circle id="Oval" fill="#FFFFFF" cx="29" cy="16" r="2"></circle>
                    <path d="M39.7324669,34.0003629 C38.7800365,41.5137083 31.3546153,47.3615962 22.3357054,47.3615962 C13.4872991,47.3615962 6.17270069,41.7327282 4.99986874,34.4246708 C9.85617893,35.0277424 15.2103322,35.3615962 20.8357054,35.3615962 C27.4631224,35.3615962 33.7140892,34.8982109 39.2180084,34.0779871 Z" id="Combined-Shape-Copy-2" fill="#000000" transform="translate(22.366256, 40.680798) rotate(-7.000000) translate(-22.366256, -40.680798) "></path>
                    <path d="M37.9490664,33.2595333 C37.9563454,35.1312743 37.5670129,36.9448242 36.8471849,38.6229442 C32.4018806,39.8135332 27.4155553,40.7845822 22.116619,41.4352098 C17.6772328,41.9802979 13.3963389,42.2540841 9.41884672,42.2818799 C8.29360097,40.8708743 7.44384667,39.250179 6.95008017,37.4764756 C11.3615701,37.5184881 16.187081,37.2491559 21.2159711,36.6316858 C27.1404486,35.9042515 32.6741508,34.7762786 37.4982625,33.3900415 L37.9490664,33.2595333 Z" id="Combined-Shape" fill="#FFFFFF"></path>
                    <path d="M24.6459249,42.0869448 C27.6739796,41.7608329 30.5202459,42.3474043 31.650301,43.4344001 C28.8900682,44.5903465 25.6110276,45.4616129 22.0482336,45.899069 C21.1967432,46.0036189 20.3549844,46.0802052 19.5265807,46.1300334 C19.3216512,45.9311658 19.1750653,45.7162262 19.0947304,45.4872434 C18.5714964,43.9958423 21.0568508,42.4734768 24.6459249,42.0869448 Z" id="Combined-Shape" fill="#DF6E6E" transform="translate(25.337738, 44.063540) rotate(1.000000) translate(-25.337738, -44.063540) "></path>
                    <path d="M38.497845,35.1925425 C33.1628589,35.9411152 27.1698797,36.3615962 20.8357054,36.3615962 C15.7014847,36.3615962 10.791469,36.0853722 6.27526944,35.5818012 C7.07545069,38.4645206 8.92634155,40.9957597 11.4480274,42.8775761 C14.3615864,45.0518291 18.1708379,46.3615962 22.3357054,46.3615962 C26.5855489,46.3615962 30.4652458,44.9978502 33.4006147,42.7433991 C35.9428712,40.7908701 37.776731,38.1680243 38.497845,35.1925425 Z" id="Combined-Shape" stroke="#000000" stroke-width="2" transform="translate(22.366256, 40.680798) rotate(-7.000000) translate(-22.366256, -40.680798) "></path>
                </g>
            </g>
        </g>
    </g>
</svg>