<?xml version="1.0" encoding="UTF-8"?>
<svg width="375px" height="667px" viewBox="0 0 375 667" version="1.1" xmlns="http://www.w3.org/2000/svg" xmlns:xlink="http://www.w3.org/1999/xlink">
    <title>Group 4</title>
    <g id="Page-1" stroke="none" stroke-width="1" fill="none" fill-rule="evenodd">
        <g id="iPhone-8-Copy-2">
            <g id="Group-5" transform="translate(0.000000, 299.000000)">
                <g id="Group-2" transform="translate(0.000000, 35.000000)">
                    <g id="Group">
                        <path d="M35,59.5529327 C38.6238526,69.6080278 38.9627998,82.4237169 36.0168415,98 L65,88.9346326 C57.5700199,68.980586 50.8819984,57.738114 44.9359356,55.2072165 C38.9898729,52.6763191 35.6778943,54.1248911 35,59.5529327 Z" id="Path-2-Copy" stroke="#000000" stroke-width="2" fill="#79503A"></path>
                        <path d="M38,55.6695115 C40.494197,63.6980518 41.3722306,74.0507544 40.6341008,86.7276194 L58,80.3768501 C53.0466799,63.5973109 48.5879989,54.143414 44.6239571,52.0151594 C40.6599152,49.8869047 38.4519295,51.1050221 38,55.6695115 Z" id="Path-2" fill="#9A7663"></path>
                        <path d="M12.054572,16.1093618 C10.8550756,16.2941065 9.79104757,16.7021885 8.96787745,17.2505876 C7.70006092,18.0952118 7,19.2632525 7,20.5 C7,21.4407077 7.40067256,22.3323828 8.1436078,23.0779166 C8.62655606,23.5625541 9.2597323,23.985688 10,24.5 C10,25.7698722 10.739443,26.969248 12.0740372,27.8185352 C13.2067399,28.539346 14.7683994,29 16.5,29 C18.1984404,29 19.7319365,28.556058 20.8601178,27.8590951 C21.3823766,27.9507691 21.9321896,28 22.5,28 C24.2172586,28 25.7674822,27.5470041 26.8975471,26.8365266 C28.1121453,26.0729026 28.8411032,25.0200103 28.9763461,23.8874341 C29.6273283,22.8984168 30,21.7388649 30,20.5 C30,19.0306606 29.4759027,17.6725453 28.5843555,16.5789478 C27.6456362,15.4274877 26.2961901,14.5702612 24.7328468,14.2014466 C24.3703546,13.3478512 23.6483972,12.5772861 22.6314966,12.0052383 C21.5309373,11.3861291 20.0863958,11 18.5,11 C16.7683994,11 15.2067399,11.460654 14.0740372,12.1814648 C12.739443,13.030752 12,14.2301278 12,15.5 C12,15.6909 12.0178343,15.8791553 12.054572,16.1093618 Z" id="Combined-Shape-Copy" stroke="#000000" stroke-width="2" fill="#000000" transform="translate(18.500000, 20.000000) scale(-1, 1) translate(-18.500000, -20.000000) "></path>
                        <path d="M50.5,30 C47.9123849,30 45.5757997,30.8142982 43.8821423,32.1094481 C42.0780989,33.4890106 41,35.406136 41,37.5 C41,38.2737953 41.1470476,39.0216034 41.422742,39.7264724 C39.8436994,40.7624474 38.7186308,42.1857981 38.247416,43.7868634 C36.7709774,44.3688265 35.522868,45.2420896 34.6198768,46.2984743 C33.587541,47.5061756 33,48.9524767 33,50.5 C33,52.1064265 33.6331543,53.6042578 34.7399932,54.8387073 C35.7306459,55.943575 37.1060226,56.8364808 38.7244945,57.3872458 C39.4158054,58.7015874 40.5747061,59.8393656 42.05953,60.6562114 C43.5908038,61.4986106 45.4686853,62 47.5,62 C50.6816535,62 53.4732661,60.7678961 55.1771642,58.9285538 C55.6094366,58.9755288 56.0509864,59 56.5,59 C59.0876151,59 61.4242003,58.1857018 63.1178577,56.8905519 C64.9219011,55.5109894 66,53.593864 66,51.5 C66,51.0728362 65.955079,50.6536912 65.8685493,50.2452852 C67.2168635,48.9407661 68,47.2852604 68,45.5 C68,43.8935735 67.3668457,42.3957422 66.2600068,41.1612927 C65.2694199,40.0564983 63.89416,39.1636378 62.2758278,38.6128639 C61.7196334,37.5555098 60.861503,36.6128407 59.7737796,35.8602151 C59.3138515,34.2222489 58.173671,32.7683325 56.5611703,31.7160584 C54.9296307,30.6513602 52.8147823,30 50.5,30 Z" id="Combined-Shape" stroke="#000000" stroke-width="2" fill="#000000"></path>
                        <path d="M54.054572,11.1093618 C52.8550756,11.2941065 51.7910476,11.7021885 50.9678774,12.2505876 C49.7000609,13.0952118 49,14.2632525 49,15.5 C49,16.4407077 49.4006726,17.3323828 50.1436078,18.0779166 C50.6265561,18.5625541 51.2597323,18.985688 52,19.5 C52,20.7698722 52.739443,21.969248 54.0740372,22.8185352 C55.2067399,23.539346 56.7683994,24 58.5,24 C60.2316006,24 61.7932601,23.539346 62.9259628,22.8185352 C64.202956,22.0059032 64.9350627,20.8727501 64.9958793,19.6640064 C65.989788,19.3832487 66.8485328,18.9416583 67.501466,18.400972 C68.4717253,17.5975117 69,16.5782043 69,15.5 C69,14.6004134 68.6338206,13.7467461 67.9530864,13.0220826 C67.5980711,12.6441573 67.154068,12.3009675 66.637392,12.0093288 C66.8757471,11.5325059 67,11.0237462 67,10.5 C67,9.23012781 66.260557,8.030752 64.9259628,7.18146478 C63.7932601,6.460654 62.2316006,6 60.5,6 C58.7683994,6 57.2067399,6.460654 56.0740372,7.18146478 C54.739443,8.030752 54,9.23012781 54,10.5 C54,10.6909 54.0178343,10.8791553 54.054572,11.1093618 Z" id="Combined-Shape-Copy-2" stroke="#000000" stroke-width="2" fill="#000000" transform="translate(59.000000, 15.000000) scale(-1, 1) translate(-59.000000, -15.000000) "></path>
                        <path d="M38.5,1 C33.28734,1 28.5619094,2.52098716 25.1437459,5.00288865 C21.8604276,7.38688006 19.7804878,10.665525 19.7804878,14.3181818 C19.7804878,16.3900425 20.451279,18.3476437 21.6399982,20.0857411 L19.3574485,20.0933628 C14.2252839,20.1629775 9.5878061,21.7072053 6.23927109,24.1846735 C3.02780316,26.5607304 1,29.8028476 1,33.4090909 C1,36.2477893 2.25941207,38.8655012 4.36358662,41.0092706 C6.6084663,43.2963929 9.80843982,45.0465441 13.5321371,45.978441 C13.846915,46.0572177 14.1611457,46.1290736 14.4745193,46.194036 C14.3933416,46.4982015 14.3270135,46.8045013 14.2758331,47.112465 C14.1903377,47.62691 14.1463415,48.1506334 14.1463415,48.6818182 C14.1463415,52.334475 16.2262813,55.6131199 19.5095995,57.9971114 C22.927763,60.4790128 27.6531937,62 32.8658537,62 C40.1502086,62 46.5071359,59.0339421 49.6186091,54.6135036 C49.7319849,54.4524318 49.8420891,54.287955 49.9488906,54.1202035 C50.1499107,54.1475084 50.3501047,54.1727482 50.5498018,54.1955522 C51.518948,54.3062218 52.5124294,54.3636364 53.5243902,54.3636364 C58.7370502,54.3636364 63.4624809,52.8426492 66.8806444,50.3607477 C70.1639626,47.9767563 72.2439024,44.6981114 72.2439024,41.0454545 C72.2439024,40.2074898 72.1343448,39.3881052 71.9251856,38.5941192 C71.8742618,38.4008081 71.8174584,38.2090955 71.7546988,38.019138 C71.9072414,37.8869171 72.0583672,37.7506507 72.2075071,37.6105446 C74.5683847,35.3926712 76,32.6180929 76,29.5909091 C76,26.7944541 74.7776949,24.2122125 72.7294697,22.0864438 C70.5426741,19.8168588 67.4209727,18.0653798 63.182198,16.6575438 C61.8230337,14.4418966 59.6550141,12.552593 56.4955238,10.6505152 C55.3583687,7.83986133 52.9680144,5.43206498 49.8215218,3.72343148 C46.6644966,2.00907851 42.7444254,1 38.5,1 Z" id="Path" stroke="#000000" stroke-width="2" fill="#5FA871"></path>
                        <path d="M58,40 C59.2482946,40 60.4202733,39.6965918 61.4350741,39.1648617 C61.4795733,39.2533311 61.5221745,39.3438383 61.5621914,39.435251 C64.7431443,40.3740728 67,42.7354917 67,45.5 C67,47.2022128 66.1443509,48.7516009 64.7440166,49.9103686 C64.911169,50.4189372 65,50.9515357 65,51.5 C65,55.0898509 61.1944204,58 56.5,58 C55.908064,58 55.3302603,57.9537299 54.7724363,57.8656613 C53.2836728,59.7443618 50.5835899,61 47.5,61 C43.7494313,61 40.5662168,59.1424285 39.4378086,56.564749 C36.2568557,55.6259272 34,53.2645083 34,50.5 C34,49.9765683 34.0809074,49.4675872 34.2336804,48.979971 C35.3225521,49.6260948 36.6142521,50 38,50 C41.8659932,50 45,47.0898509 45,43.5 C45,42.5460318 44.7786829,41.6400628 44.3811252,40.8239495 C44.8999769,40.9394549 45.442374,41 46,41 C48.7872509,41 51.1940208,39.4873265 52.3201457,37.2978461 C53.5899211,38.9347343 55.660988,40 58,40 Z" id="Path" fill="#449458"></path>
                        <path d="M18.5,12 C21.5375661,12 24,13.5670034 24,15.5 C24,15.9698256 23.8545292,16.4180297 23.590687,16.8273674 L23.4704436,17.000368 L23.7517587,17.0036016 C26.672468,17.0873381 29,18.6206977 29,20.5 C29,21.4213302 28.4405865,22.2595143 27.5262886,22.8845275 C26.4908332,22.3219685 25.2859088,22 24,22 C20.5896322,22 17.7488819,24.2646209 17.1266595,27.2627315 C16.844417,27.1246221 16.5847169,26.9680662 16.3508095,26.7968913 C15.7724499,26.9283858 15.1493671,27 14.5,27 C11.4845828,27 9.03594107,25.4557654 9.00108073,23.5428016 C8.36857252,22.6713902 8,21.6251506 8,20.5 C8,19.2666869 8.44284152,18.1281858 9.19071712,17.21082 C10.1035249,16.0911436 11.4707431,15.3008936 13.0409108,15.0709589 C13.373314,13.3403543 15.690684,12 18.5,12 Z" id="Path" fill="#449458"></path>
                        <path d="M57.5,7 C60.5375661,7 63,8.56700338 63,10.5 C63,10.9698256 62.8545292,11.4180297 62.590687,11.8273674 L62.4704436,12.000368 L62.7517587,12.0036016 C65.672468,12.0873381 68,13.6206977 68,15.5 C68,16.8997647 66.7087437,18.1076091 64.8434875,18.667553 C64.9457733,18.934359 65,19.2131496 65,19.5 C65,20.8608479 63.7795457,22.0402987 61.9971688,22.619287 L62,22.5 L62,22.5 C62,20.5670034 60.209139,19 58,19 C57.5474269,19 57.1124085,19.065766 56.7067465,19.1869717 C56.1153357,17.9044979 54.678386,17 53,17 C52.2590362,17 51.5651282,17.176286 50.9700676,17.4835402 C50.3582076,16.9212643 50,16.2372525 50,15.5 C50,14.1662428 51.1723464,13.0067322 52.896816,12.416246 C52.3297698,11.8657509 52,11.2073824 52,10.5 C52,8.56700338 54.4624339,7 57.5,7 Z" id="Path" fill="#449458"></path>
                    </g>
                </g>
                <g id="Group-2-Copy" transform="translate(356.500000, 72.000000) scale(-1, 1) translate(-356.500000, -72.000000) translate(300.000000, 0.000000)">
                    <g id="Group">
                        <path d="M51.3636364,87.898667 C56.6817578,102.570898 57.1791737,121.271342 52.8558843,144 L95.3896104,130.771964 C84.4858733,101.655345 74.6709847,85.2505132 65.9449445,81.557469 C57.2189043,77.8644248 52.3584683,79.9781575 51.3636364,87.898667 Z" id="Path-2-Copy" stroke="#000000" stroke-width="2" fill="#79503A"></path>
                        <path d="M52.7142857,86.813675 C56.7406322,98.5287899 58.1580293,113.635285 56.966477,132.133159 L85,122.86622 C77.0039261,98.3817905 69.8063411,84.5868184 63.407245,81.481304 C57.0081489,78.3757895 53.4438291,80.1532465 52.7142857,86.813675 Z" id="Path-2" fill="#9A7663"></path>
                        <path d="M74.1103896,45.2346939 C70.4262152,45.2346939 67.0969136,46.3824993 64.6846586,48.2166705 C62.1593756,50.1367833 60.6363636,52.8010367 60.6363636,55.7193878 C60.6363636,56.9178837 60.892901,58.0711911 61.3694697,59.1474542 C58.9097752,60.6538967 57.1684643,62.8023337 56.5177035,65.2373435 C54.3329307,66.0555306 52.4859077,67.3154421 51.1631375,68.8540574 C49.7212757,70.5311973 48.8961039,72.5386548 48.8961039,74.6887755 C48.8961039,76.9213274 49.785808,79.0005598 51.332035,80.7153438 C52.7727038,82.3130625 54.7889349,83.5932594 57.1600856,84.364333 C58.1236239,86.2767068 59.7966807,87.9290103 61.9517945,89.1077198 C64.134856,90.3017149 66.8123694,91.0102041 69.7077922,91.0102041 C74.3292143,91.0102041 78.3811099,89.2028542 80.7883597,86.5037697 C81.4811443,86.5883904 82.1915728,86.6326531 82.9155844,86.6326531 C86.5997588,86.6326531 89.9290605,85.4848476 92.3413154,83.6506764 C94.8665984,81.7305636 96.3896104,79.0663102 96.3896104,76.1479592 C96.3896104,75.4705273 96.3075005,74.8076706 96.1503105,74.164978 C98.1487094,72.3254596 99.3246753,69.9579979 99.3246753,67.3928571 C99.3246753,65.1603562 98.4350137,63.0811674 96.8887886,61.3663855 C95.4481603,59.7687116 93.431961,58.4885041 91.06074,57.7173287 C90.2590784,56.1260453 88.9667544,54.7151687 87.3126104,53.6077462 C86.6968417,51.2532342 85.0649024,49.1661102 82.7472023,47.662382 C80.4222934,46.1539766 77.4080159,45.2346939 74.1103896,45.2346939 Z" id="Combined-Shape" stroke="#000000" stroke-width="2" fill="#000000"></path>
                        <path d="M88.7857143,10.2142857 C86.3448986,10.2142857 84.1411382,10.8542928 82.5436562,11.8650889 C80.7412244,13.0055657 79.7142857,14.6077806 79.7142857,16.3214286 C79.7142857,16.7572981 79.7804621,17.1840893 79.9039783,17.5968239 C78.0839902,17.8038158 76.4586093,18.3684231 75.2059939,19.1610072 C73.403562,20.301484 72.3766234,21.903699 72.3766234,23.6173469 C72.3766234,24.8747543 72.9236282,26.062165 73.9206141,27.0568622 C74.657593,27.7921494 75.647042,28.4223071 76.8170519,28.8844698 C76.7919878,29.0723039 76.7792208,29.2622561 76.7792208,29.4540816 C76.7792208,31.1677296 77.8061594,32.7699446 79.6085913,33.9104213 C81.2060732,34.9212175 83.4098336,35.5612245 85.8506494,35.5612245 C88.2914651,35.5612245 90.4952255,34.9212175 92.0927074,33.9104213 C93.8951393,32.7699446 94.9220779,31.1677296 94.9205887,29.3407959 C96.4522151,28.9581584 97.7745332,28.3102305 98.7605964,27.4982244 C100.065897,26.423332 100.792208,25.0639323 100.792208,23.6173469 C100.792208,22.4160872 100.293262,21.2797859 99.3803139,20.3137278 C98.7986043,19.698178 98.0440627,19.1513452 97.1556154,18.7084576 C97.6136191,17.9682002 97.8571429,17.1602364 97.8571429,16.3214286 C97.8571429,14.6077806 96.8302042,13.0055657 95.0277724,11.8650889 C93.4302904,10.8542928 91.22653,10.2142857 88.7857143,10.2142857 Z" id="Combined-Shape-Copy-2" stroke="#000000" stroke-width="2" fill="#000000" transform="translate(86.584416, 22.887755) scale(-1, 1) translate(-86.584416, -22.887755) "></path>
                        <path d="M42.5909091,-1 C40.1500934,-1 37.946333,-0.359992961 36.348851,0.650803154 C34.5464192,1.79127994 33.5194805,3.39349491 33.5194805,5.10714286 C33.5194805,5.54301238 33.5856569,5.96980357 33.7091731,6.38253823 C31.889185,6.58953007 30.2638041,7.15413743 29.0111887,7.94672152 C27.2087568,9.08719831 26.1818182,10.6894133 26.1818182,12.4030612 C26.1818182,13.6604685 26.728823,14.8478793 27.7258089,15.8425765 C28.4627878,16.5778636 29.4522368,17.2080214 30.6222467,17.6701841 C30.5971826,17.8580182 30.5844156,18.0479704 30.5844156,18.2397959 C30.5844156,19.9534439 31.6113542,21.5556588 33.4137861,22.6961356 C35.011268,23.7069317 37.2150284,24.3469388 39.6558442,24.3469388 C42.1273931,24.3469388 44.3543331,23.6898606 45.9580647,22.6567892 C46.7509379,22.8068227 47.5910935,22.8877551 48.461039,22.8877551 C50.8817826,22.8877551 53.0694571,22.2582941 54.6633781,21.261855 C56.3457847,20.2100991 57.3630656,18.7573675 57.5125063,17.1860538 C58.4570059,15.7964614 59,14.1572833 59,12.4030612 C59,10.3666733 58.2684073,8.48494741 57.025887,6.96950687 C55.6636047,5.3079985 53.6833199,4.08787595 51.3925312,3.60564664 C50.9324192,2.35677994 49.8983662,1.23192158 48.4220252,0.406300707 C46.8686278,-0.462412719 44.8290348,-1 42.5909091,-1 Z" id="Combined-Shape-Copy" stroke="#000000" stroke-width="2" fill="#000000" transform="translate(42.590909, 11.673469) scale(-1, 1) translate(-42.590909, -11.673469) "></path>
                        <path d="M56.5,2 C48.7405896,2 41.7095,4.25744537 36.6223712,7.93015579 C31.6728446,11.5035227 28.5609756,16.4248553 28.5609756,21.8928571 C28.5609756,24.7286755 29.3992883,27.4226924 30.9019032,29.8537365 L28.4630077,29.8599387 C20.8148812,29.9495058 13.8959357,32.2377462 8.89816963,35.90612 C4.04367008,39.4693358 1,44.3425552 1,49.75 C1,54.0089216 2.89106497,57.9412882 6.06805523,61.1595269 C9.41687605,64.5518272 14.1878572,67.153054 19.7441202,68.535475 C20.0540826,68.612595 20.3636635,68.6852189 20.6727304,68.7533606 C20.6016771,69.0579378 20.5403118,69.3637938 20.4889881,69.6707845 C20.3593817,70.4460213 20.2926829,71.2352443 20.2926829,72.0357143 C20.2926829,77.5037161 23.4045519,82.4250487 28.3540785,85.9984156 C33.4412073,89.6711261 40.4722969,91.9285714 48.2317073,91.9285714 C59.0993628,91.9285714 68.5625331,87.504544 73.2000848,80.9531798 C73.3135894,80.7928346 73.4249312,80.6301865 73.5340954,80.4652941 C73.7332935,80.4908231 73.9313734,80.5148783 74.1291213,80.5373348 C75.5690777,80.7008578 77.0451977,80.7857143 78.5487805,80.7857143 C86.3081909,80.7857143 93.3392805,78.5282689 98.4264093,74.8555585 C103.375936,71.2821916 106.487805,66.3608589 106.487805,60.8928571 C106.487805,59.6305004 106.321857,58.3961273 106.005169,57.1999404 C105.953909,57.0063194 105.898721,56.8137831 105.839571,56.6224012 C105.990453,56.4885733 106.140494,56.3521851 106.289245,56.2132363 C109.852304,52.884965 112,48.717927 112,44.1785714 C112,39.98252 110.164257,36.1032002 107.071521,32.9116272 C103.808763,29.5446002 99.153752,26.9408773 93.1216898,25.0683264 C91.0861792,21.7690838 87.843246,18.9509663 83.3424973,16.3690361 C81.6367071,12.1782625 78.0603065,8.57927332 73.3389288,6.03025104 C68.6432604,3.49510893 62.8133643,2 56.5,2 Z" id="Path" stroke="#000000" stroke-width="2" fill="#5FA871"></path>
                        <path d="M93.9717395,60.1935948 C96.6364557,61.9326148 98.3246753,64.5128301 98.3246753,67.3928571 C98.3246753,69.8766656 97.0690155,72.1374808 95.0140274,73.8283285 C95.259255,74.5705321 95.3896104,75.3476707 95.3896104,76.1479592 C95.3896104,81.386211 89.8047987,85.6326531 82.9155844,85.6326531 C82.0470926,85.6326531 81.1993311,85.5651665 80.3808755,85.436714 C78.1941116,88.1786484 74.2322564,90.0102041 69.7077922,90.0102041 C64.2041969,90.0102041 59.5330653,87.3001448 57.8767033,83.5393545 C54.9399115,82.676973 52.5399374,80.9935757 51.1635142,78.8592148 C51.6740506,78.9321449 52.195951,78.9693878 52.7272727,78.9693878 C58.4007433,78.9693878 63,74.7229457 63,69.4846939 C63,69.0865427 62.9734288,68.6941215 62.9218344,68.3088594 C64.5720214,69.3566519 66.5721458,69.9693878 68.7272727,69.9693878 C71.9626735,69.9693878 74.8487335,68.5884193 76.7317169,66.4300692 C78.565277,68.0055838 81.0243691,68.9693878 83.7272727,68.9693878 C89.1424731,68.9693878 93.5790352,65.1007626 93.9717395,60.1935948 Z" id="Path" fill="#449458"></path>
                        <path d="M42.5909091,4.28101998e-13 C47.048636,4.28101998e-13 50.6623377,2.28654574 50.6623377,5.10714286 C50.6623377,5.81248955 50.4363548,6.48443933 50.0273974,7.09484342 L49.8843605,7.29599337 L50.2119343,7.2990068 C54.538437,7.39345995 58,9.64247681 58,12.4030612 C58,14.2916443 56.3798979,15.9408004 53.9713446,16.8244348 C52.0975509,14.5029184 49.1025069,13 45.7272727,13 C40.2934694,13 35.8450398,16.8952508 35.478902,21.8264027 C31.6423507,21.4528468 28.6977013,19.3683444 28.6507062,16.8427521 C27.7226208,15.5712657 27.1818182,14.0447267 27.1818182,12.4030612 C27.1818182,10.6034309 27.8317025,8.9421486 28.9292342,7.60354345 C30.2686988,5.96986476 32.2749155,4.8168002 34.579702,4.48014364 C35.0681834,1.95533297 38.4686634,4.28101998e-13 42.5909091,4.28101998e-13 Z" id="Path" fill="#449458"></path>
                        <path d="M84.3831169,11.2142857 C88.8408438,11.2142857 92.4545455,13.5008315 92.4545455,16.3214286 C92.4545455,17.0267753 92.2285626,17.698725 91.8196052,18.3091291 L91.6765683,18.5102791 L92.004142,18.5132925 C96.3306448,18.6077457 99.7922078,20.8567625 99.7922078,23.6173469 C99.7922078,25.6597465 97.8974591,27.4221304 95.1598143,28.2391063 C95.3099925,28.628511 95.3896104,29.0354131 95.3896104,29.4540816 C95.3896104,31.439774 93.5986165,33.160784 90.982995,34.00565 C90.9858866,33.9481876 90.987013,33.8900246 90.987013,33.8316327 C90.987013,31.0110355 88.3588663,28.7244898 85.1168831,28.7244898 C84.4537163,28.7244898 83.8162343,28.820166 83.2216781,28.9965184 C82.3516501,27.1263097 80.2426414,25.8061224 77.7792208,25.8061224 C76.6911466,25.8061224 75.6722155,26.0636806 74.7985773,26.5125449 C73.9016014,25.6898967 73.3766234,24.6924138 73.3766234,23.6173469 C73.3766234,21.6711477 75.0970842,19.979207 77.6284302,19.1181966 C76.7958825,18.3147988 76.3116883,17.353892 76.3116883,16.3214286 C76.3116883,13.5008315 79.92539,11.2142857 84.3831169,11.2142857 Z" id="Path" fill="#449458"></path>
                    </g>
                </g>
            </g>
        </g>
    </g>
</svg>