<?xml version="1.0" encoding="UTF-8"?>
<svg width="282px" height="349px" viewBox="0 0 282 349" version="1.1" xmlns="http://www.w3.org/2000/svg" xmlns:xlink="http://www.w3.org/1999/xlink">
    <title>Group 8 Copy</title>
    <g id="Page-1" stroke="none" stroke-width="1" fill="none" fill-rule="evenodd">
        <ellipse id="Oval-Copy-4" fill="#5FA871" cx="140" cy="326" rx="112" ry="19"></ellipse>
        <g id="Group-4-Copy-2" transform="translate(8.000000, 71.000000)">
            <g id="Group-2">
                <path d="M132.5,139.015523 C220.833333,139.015523 265,158.821325 265,198.432927 C265,238.04453 224.88282,259.405395 144.648459,262.515523 C48.2161528,262.515523 0,248.848857 0,221.515523 C0,194.18219 37.8624718,180.515523 113.587415,180.515523 C165.485279,180.515523 125.766998,178.17468 74,174.491454 C46,172.499252 32,160.673942 32,139.015523 C32,106.527896 92.5580621,98.5155234 132.5,98.5155234 C101.750284,98.5155234 86.3754266,84.8488567 86.3754266,57.5155234 C88.396377,36.3292573 107.738073,17.1574162 144.400513,2.98427949e-12 C156.994683,50.7313646 225.578962,63.6156613 225.578962,98.5155234 C225.578962,121.782098 207.371714,134.444753 170.957218,136.503489 C108.653721,140.025889 70.0970105,139.015523 132.5,139.015523 Z" id="Path-3-Copy-2" fill="#9A7663"></path>
                <path d="M132.5,139.015523 C220.833333,139.015523 265,158.821325 265,198.432927 C265,238.04453 224.88282,259.405395 144.648459,262.515523 C138.43722,262.515523 132.426015,262.458825 126.614845,262.345427 C204.20703,258.689332 243,237.385283 243,198.432927 C243,159.657399 200.678092,139.860421 116.034277,139.041994 C120.453023,139.026777 125.914282,139.015523 132.5,139.015523 Z M144.400513,-6.53699317e-13 C156.994683,50.7313646 225.578962,63.6156613 225.578962,98.5155234 C225.578962,121.782098 207.371714,134.444753 170.957218,136.503489 C142.712966,138.10031 119.348943,138.765598 108.058691,139.015778 C92.1302781,139.022977 83.3105119,139.096487 80.1322324,139.131478 L80.092,139.131 L80.1881428,139.130158 C86.5093623,139.028942 113.093852,138.495571 147.095315,136.607806 L148.957218,136.503489 C185.371714,134.444753 203.578962,121.782098 203.578962,98.5155234 C203.578962,65.2931135 142.793297,50.7325212 140.400506,1.91440463 C141.711273,1.27237412 143.044038,0.634808259 144.400513,-6.53699317e-13 Z" id="Combined-Shape" fill="#7F5D4A"></path>
                <path d="M132.5,139.015523 C220.833333,139.015523 265,158.821325 265,198.432927 C265,238.04453 224.88282,259.405395 144.648459,262.515523 C48.2161528,262.515523 0,248.848857 0,221.515523 C0,194.18219 37.8624718,180.515523 113.587415,180.515523 C165.485279,180.515523 125.766998,178.17468 74,174.491454 C46,172.499252 32,160.673942 32,139.015523 C32,106.527896 92.5580621,98.5155234 132.5,98.5155234 C101.750284,98.5155234 86.3754266,84.8488567 86.3754266,57.5155234 C88.396377,36.3292573 107.738073,17.1574162 144.400513,2.98427949e-12 C156.994683,50.7313646 225.578962,63.6156613 225.578962,98.5155234 C225.578962,121.782098 207.371714,134.444753 170.957218,136.503489 C108.653721,140.025889 70.0970105,139.015523 132.5,139.015523 Z" id="Path-3-Copy-2" stroke="#000000" stroke-width="4" stroke-linecap="round"></path>
            </g>
            <g id="Group-3" transform="translate(120.000000, 39.000000)">
                <ellipse id="Oval" fill="#FFFFFF" cx="8.5" cy="13" rx="8.5" ry="13"></ellipse>
                <circle id="Oval" fill="#000000" cx="11" cy="19" r="4"></circle>
                <circle id="Oval" fill="#FFFFFF" cx="9" cy="17" r="2"></circle>
                <ellipse id="Oval-Copy" fill="#FFFFFF" cx="29.5" cy="12.5" rx="7.5" ry="11.5"></ellipse>
                <circle id="Oval-Copy-3" fill="#000000" cx="31" cy="18" r="4"></circle>
                <circle id="Oval" fill="#FFFFFF" cx="29" cy="16" r="2"></circle>
                <g id="Group-5" transform="translate(22.500000, 40.500000) rotate(-4.000000) translate(-22.500000, -40.500000) translate(4.000000, 31.000000)">
                    <path d="M35.7324669,3.0003629 C34.7800365,10.5137083 27.3546153,16.3615962 18.3357054,16.3615962 C9.48729905,16.3615962 2.17270069,10.7327282 0.99986874,3.42467077 C5.85617893,4.02774236 11.2103322,4.36159617 16.8357054,4.36159617 C23.4631224,4.36159617 29.7140892,3.89821088 35.2180084,3.07798707 Z" id="Combined-Shape-Copy-2" fill="#000000" transform="translate(18.366256, 9.680798) rotate(-7.000000) translate(-18.366256, -9.680798) "></path>
                    <g id="Group-4">
                        <path d="M33.9490664,2 C33.9563454,3.87174093 33.5670129,5.68529082 32.8471849,7.36341086 C28.4018806,8.55399987 23.4155553,9.52504887 18.116619,10.1756764 C13.6772328,10.7207645 9.3963389,10.9945507 5.41884672,11.0223466 C4.29360097,9.61134094 3.44384667,7.99064565 2.95008017,6.21694225 C7.36157013,6.25895479 12.187081,5.98962256 17.2159711,5.3721525 C23.1404486,4.64471813 28.6741508,3.51674528 33.4982625,2.13050821 L33.9490664,2 Z" id="Combined-Shape" fill="#FFFFFF"></path>
                        <path d="M20.6459249,10.8274115 C23.6739796,10.5012995 26.5202459,11.087871 27.650301,12.1748667 C24.8900682,13.3308131 21.6110276,14.2020796 18.0482336,14.6395357 C17.1967432,14.7440856 16.3549844,14.8206718 15.5265807,14.8705001 C15.3216512,14.6716325 15.1750653,14.4566928 15.0947304,14.22771 C14.5714964,12.736309 17.0568508,11.2139435 20.6459249,10.8274115 Z" id="Combined-Shape" fill="#DF6E6E" transform="translate(21.337738, 12.804007) rotate(1.000000) translate(-21.337738, -12.804007) "></path>
                        <path d="M34.497845,3.93300917 C29.1628589,4.6815819 23.1698797,5.10206282 16.8357054,5.10206282 C11.7014847,5.10206282 6.79146903,4.82583884 2.27526944,4.32226781 C3.07545069,7.20498725 4.92634155,9.73622633 7.44802742,11.6180427 C10.3615864,13.7922958 14.1708379,15.1020628 18.3357054,15.1020628 C22.5855489,15.1020628 26.4652458,13.7383169 29.4006147,11.4838658 C31.9428712,9.53133671 33.776731,6.90849095 34.497845,3.93300917 Z" id="Combined-Shape" stroke="#000000" stroke-width="2" transform="translate(18.366256, 9.421265) rotate(-7.000000) translate(-18.366256, -9.421265) "></path>
                    </g>
                </g>
            </g>
        </g>
    </g>
</svg>