<?xml version="1.0" encoding="UTF-8"?>
<svg width="1296px" height="1296px" viewBox="0 0 1296 1296" version="1.1" xmlns="http://www.w3.org/2000/svg" xmlns:xlink="http://www.w3.org/1999/xlink">
    <title>Group 13</title>
    <g id="Page-1" stroke="none" stroke-width="1" fill="none" fill-rule="evenodd">
        <g id="Group-13" transform="translate(-266.654442, -267.056707)">
            <path d="M1237.88623,135.016 L1237.8872,782 L590.890228,781.996985 C591.970331,424.485314 882.122308,135 1239.8872,135 L1237.88623,135.016 Z" id="Combined-Shape" fill="#94D8A5" transform="translate(915.388716, 458.500000) rotate(-315.000000) translate(-915.388716, -458.500000) "></path>
            <path d="M1693.26086,591.804841 L1693.26183,1238.78884 L1046.26486,1238.78583 C1047.34496,881.274155 1337.49694,591.788841 1695.26183,591.788841 L1693.26086,591.804841 Z" id="Combined-Shape-Copy-3" fill="#C0A4C4" transform="translate(1370.763344, 915.288841) rotate(-585.000000) translate(-1370.763344, -915.288841) "></path>
            <path d="M780.996,589.728436 L780.996975,1236.71244 L134,1236.70942 C135.080103,879.197749 425.23208,589.712436 782.996975,589.712436 L780.996,589.728436 Z" id="Combined-Shape-Copy-5" fill="#C0A4C4" transform="translate(458.498487, 913.212436) rotate(-405.000000) translate(-458.498487, -913.212436) "></path>
            <g id="Group-11" transform="translate(527.654442, 295.056707)" fill="#5FA871">
                <path d="M528.704388,41.4824176 C533.261825,44.6635409 540.781224,59.9648496 540.781224,64.5816728 L556.579401,67.8827103 C557.464452,60.2392013 561.221767,53.0253908 567.851346,46.2412788 C560.616889,48.4425187 555.868123,52.046951 553.60505,57.0545758 C555.58795,41.0181919 556.579401,33 556.579401,33 C548.924497,42.5869901 545.00126,49.9775281 544.809691,55.1716138 C543.131491,45.9409539 524.146952,38.3012942 528.704388,41.4824176 Z" id="Path"></path>
                <path d="M625.078199,212.887993 C632.054215,217.72132 643.564074,240.969782 643.564074,247.984478 L667.746162,253 C669.100899,241.386626 674.852179,230.426125 685,220.118499 C673.926299,223.463013 666.657418,228.939506 663.193357,236.547978 C666.228561,212.182659 667.746162,200 667.746162,200 C656.028889,214.566256 650.023635,225.795272 649.730402,233.687048 C647.1616,219.662192 618.102183,208.054666 625.078199,212.887993 Z" id="Path-Copy-13"></path>
                <path d="M467.530262,291.322412 C470.96109,293.693478 476.621676,305.098384 476.621676,308.539555 L488.514506,311 C489.18077,305.302873 492.009268,299.926024 497,294.869452 C491.553917,296.510157 487.979058,299.196739 486.275422,302.929197 C487.768145,290.976399 488.514506,285 488.514506,285 C482.751912,292.14571 479.798509,297.654284 479.654296,301.525722 C478.390951,294.645604 464.099434,288.951346 467.530262,291.322412 Z" id="Path-Copy-15"></path>
                <path d="M293.742324,115.05486 C299.108337,118.833661 312.705014,146.515756 312.705014,152 L331.786707,146.415308 C333.10551,136.349115 340.176608,124.960565 353,112.249658 C338.039849,119.012094 329.227481,125.367548 326.562895,131.316018 C330.045436,110.438673 331.786707,100 331.786707,100 C322.903207,110.036574 317.564468,120.475246 315.770489,131.316018 C313.794544,120.351078 288.376311,111.27606 293.742324,115.05486 Z" id="Path-Copy-2"></path>
                <path d="M177.449383,180.508217 C186.826978,187.074246 202.592802,225.470601 202.592802,235 L234.806317,235 C236.627439,219.22334 244.358666,204.333604 258,190.330791 C243.114041,194.874282 233.342758,202.314046 228.686152,212.650083 C232.766262,179.550028 234.806317,163 234.806317,163 C219.055227,182.788121 210.982592,198.042633 210.588409,208.763537 C207.135266,189.710903 168.071787,173.942188 177.449383,180.508217 Z" id="Path-Copy"></path>
                <g id="Group-3" transform="translate(480.000000, 152.000000)">
                    <circle id="Oval" cx="8.5" cy="32.5" r="8.5"></circle>
                    <circle id="Oval-Copy-24" cx="26.5" cy="60.5" r="3.5"></circle>
                    <circle id="Oval-Copy-25" cx="40.5" cy="28.5" r="3.5"></circle>
                    <circle id="Oval-Copy-30" cx="64" cy="31" r="6"></circle>
                    <circle id="Oval-Copy-26" cx="61.5" cy="53.5" r="3.5"></circle>
                    <circle id="Oval-Copy-27" cx="73.5" cy="10.5" r="3.5"></circle>
                    <circle id="Oval-Copy-28" cx="30.5" cy="3.5" r="3.5"></circle>
                </g>
                <g id="Group-3-Copy-2" transform="translate(272.000000, 311.000000)">
                    <circle id="Oval" cx="11.5" cy="43.5" r="11.5"></circle>
                    <circle id="Oval-Copy-24" cx="35.5" cy="81.5" r="4.5"></circle>
                    <circle id="Oval-Copy-25" cx="54.5" cy="38.5" r="4.5"></circle>
                    <circle id="Oval-Copy-30" cx="86" cy="42" r="8"></circle>
                    <circle id="Oval-Copy-26" cx="82.5" cy="71.5" r="4.5"></circle>
                    <circle id="Oval-Copy-27" cx="98.5" cy="14.5" r="4.5"></circle>
                    <circle id="Oval-Copy-28" cx="40.5" cy="4.5" r="4.5"></circle>
                </g>
                <g id="Group-3-Copy" transform="translate(257.500000, 24.500000) scale(-1, 1) translate(-257.500000, -24.500000) translate(233.000000, 4.000000)">
                    <circle id="Oval" cx="6" cy="21" r="6"></circle>
                    <circle id="Oval-Copy-24" cx="16" cy="39" r="2"></circle>
                    <circle id="Oval-Copy-25" cx="24" cy="18" r="2"></circle>
                    <circle id="Oval-Copy-30" cx="41" cy="21" r="4"></circle>
                    <circle id="Oval-Copy-26" cx="41" cy="35" r="2"></circle>
                    <circle id="Oval-Copy-27" cx="47" cy="6" r="2"></circle>
                    <circle id="Oval-Copy-28" cx="18" cy="2" r="2"></circle>
                </g>
                <g id="Group-3-Copy-3" transform="translate(24.500000, 159.500000) scale(-1, 1) translate(-24.500000, -159.500000) translate(0.000000, 139.000000)">
                    <circle id="Oval" cx="6" cy="21" r="6"></circle>
                    <circle id="Oval-Copy-24" cx="16" cy="39" r="2"></circle>
                    <circle id="Oval-Copy-25" cx="24" cy="18" r="2"></circle>
                    <circle id="Oval-Copy-30" cx="41" cy="21" r="4"></circle>
                    <circle id="Oval-Copy-26" cx="41" cy="35" r="2"></circle>
                    <circle id="Oval-Copy-27" cx="47" cy="6" r="2"></circle>
                    <circle id="Oval-Copy-28" cx="18" cy="2" r="2"></circle>
                </g>
                <g id="Group-3-Copy-5" transform="translate(727.500000, 139.500000) scale(-1, 1) translate(-727.500000, -139.500000) translate(710.000000, 119.000000)">
                    <circle id="Oval-Copy-24" cx="2" cy="39" r="2"></circle>
                    <circle id="Oval-Copy-25" cx="10" cy="18" r="2"></circle>
                    <circle id="Oval-Copy-26" cx="27" cy="35" r="2"></circle>
                    <circle id="Oval-Copy-27" cx="33" cy="6" r="2"></circle>
                    <circle id="Oval-Copy-28" cx="4" cy="2" r="2"></circle>
                </g>
                <g id="Group-3-Copy-4" transform="translate(66.500000, 118.500000) scale(-1, 1) translate(-66.500000, -118.500000) translate(49.000000, 98.000000)">
                    <circle id="Oval-Copy-24" cx="2" cy="39" r="2"></circle>
                    <circle id="Oval-Copy-25" cx="10" cy="18" r="2"></circle>
                    <circle id="Oval-Copy-30" cx="27" cy="21" r="4"></circle>
                    <circle id="Oval-Copy-26" cx="27" cy="35" r="2"></circle>
                    <circle id="Oval-Copy-27" cx="33" cy="6" r="2"></circle>
                    <circle id="Oval-Copy-28" cx="4" cy="2" r="2"></circle>
                </g>
                <g id="Group-3-Copy" transform="translate(531.000000, 10.000000) scale(-1, 1) translate(-531.000000, -10.000000) translate(519.000000, 0.000000)">
                    <circle id="Oval" cx="3" cy="10" r="3"></circle>
                    <circle id="Oval-Copy-24" cx="8" cy="19" r="1"></circle>
                    <circle id="Oval-Copy-25" cx="12" cy="9" r="1"></circle>
                    <circle id="Oval-Copy-30" cx="20" cy="10" r="2"></circle>
                    <circle id="Oval-Copy-26" cx="20" cy="17" r="1"></circle>
                    <circle id="Oval-Copy-27" cx="23" cy="3" r="1"></circle>
                    <circle id="Oval-Copy-28" cx="9" cy="1" r="1"></circle>
                </g>
            </g>
            <g id="Group-15" transform="translate(914.154442, 1370.556707) rotate(-180.000000) translate(-914.154442, -1370.556707) translate(455.654442, 912.056707)">
                <path d="M781.231786,135.016 L781.232761,782 L134.235786,781.996985 C135.315889,424.485314 425.467866,135 783.232761,135 L781.231786,135.016 Z" id="Combined-Shape" fill="#94D8A5" transform="translate(458.734273, 458.500000) rotate(-315.000000) translate(-458.734273, -458.500000) "></path>
                <g id="Group-11" transform="translate(71.000000, 295.056707)" fill="#5FA871">
                    <path d="M528.704388,41.4824176 C533.261825,44.6635409 540.781224,59.9648496 540.781224,64.5816728 L556.579401,67.8827103 C557.464452,60.2392013 561.221767,53.0253908 567.851346,46.2412788 C560.616889,48.4425187 555.868123,52.046951 553.60505,57.0545758 C555.58795,41.0181919 556.579401,33 556.579401,33 C548.924497,42.5869901 545.00126,49.9775281 544.809691,55.1716138 C543.131491,45.9409539 524.146952,38.3012942 528.704388,41.4824176 Z" id="Path"></path>
                    <path d="M625.078199,212.887993 C632.054215,217.72132 643.564074,240.969782 643.564074,247.984478 L667.746162,253 C669.100899,241.386626 674.852179,230.426125 685,220.118499 C673.926299,223.463013 666.657418,228.939506 663.193357,236.547978 C666.228561,212.182659 667.746162,200 667.746162,200 C656.028889,214.566256 650.023635,225.795272 649.730402,233.687048 C647.1616,219.662192 618.102183,208.054666 625.078199,212.887993 Z" id="Path-Copy-13"></path>
                    <path d="M467.530262,291.322412 C470.96109,293.693478 476.621676,305.098384 476.621676,308.539555 L488.514506,311 C489.18077,305.302873 492.009268,299.926024 497,294.869452 C491.553917,296.510157 487.979058,299.196739 486.275422,302.929197 C487.768145,290.976399 488.514506,285 488.514506,285 C482.751912,292.14571 479.798509,297.654284 479.654296,301.525722 C478.390951,294.645604 464.099434,288.951346 467.530262,291.322412 Z" id="Path-Copy-15"></path>
                    <path d="M293.742324,115.05486 C299.108337,118.833661 312.705014,146.515756 312.705014,152 L331.786707,146.415308 C333.10551,136.349115 340.176608,124.960565 353,112.249658 C338.039849,119.012094 329.227481,125.367548 326.562895,131.316018 C330.045436,110.438673 331.786707,100 331.786707,100 C322.903207,110.036574 317.564468,120.475246 315.770489,131.316018 C313.794544,120.351078 288.376311,111.27606 293.742324,115.05486 Z" id="Path-Copy-2"></path>
                    <path d="M177.449383,180.508217 C186.826978,187.074246 202.592802,225.470601 202.592802,235 L234.806317,235 C236.627439,219.22334 244.358666,204.333604 258,190.330791 C243.114041,194.874282 233.342758,202.314046 228.686152,212.650083 C232.766262,179.550028 234.806317,163 234.806317,163 C219.055227,182.788121 210.982592,198.042633 210.588409,208.763537 C207.135266,189.710903 168.071787,173.942188 177.449383,180.508217 Z" id="Path-Copy"></path>
                    <g id="Group-3" transform="translate(480.000000, 152.000000)">
                        <circle id="Oval" cx="8.5" cy="32.5" r="8.5"></circle>
                        <circle id="Oval-Copy-24" cx="26.5" cy="60.5" r="3.5"></circle>
                        <circle id="Oval-Copy-25" cx="40.5" cy="28.5" r="3.5"></circle>
                        <circle id="Oval-Copy-30" cx="64" cy="31" r="6"></circle>
                        <circle id="Oval-Copy-26" cx="61.5" cy="53.5" r="3.5"></circle>
                        <circle id="Oval-Copy-27" cx="73.5" cy="10.5" r="3.5"></circle>
                        <circle id="Oval-Copy-28" cx="30.5" cy="3.5" r="3.5"></circle>
                    </g>
                    <g id="Group-3-Copy-2" transform="translate(272.000000, 311.000000)">
                        <circle id="Oval" cx="11.5" cy="43.5" r="11.5"></circle>
                        <circle id="Oval-Copy-24" cx="35.5" cy="81.5" r="4.5"></circle>
                        <circle id="Oval-Copy-25" cx="54.5" cy="38.5" r="4.5"></circle>
                        <circle id="Oval-Copy-30" cx="86" cy="42" r="8"></circle>
                        <circle id="Oval-Copy-26" cx="82.5" cy="71.5" r="4.5"></circle>
                        <circle id="Oval-Copy-27" cx="98.5" cy="14.5" r="4.5"></circle>
                        <circle id="Oval-Copy-28" cx="40.5" cy="4.5" r="4.5"></circle>
                    </g>
                    <g id="Group-3-Copy" transform="translate(257.500000, 24.500000) scale(-1, 1) translate(-257.500000, -24.500000) translate(233.000000, 4.000000)">
                        <circle id="Oval" cx="6" cy="21" r="6"></circle>
                        <circle id="Oval-Copy-24" cx="16" cy="39" r="2"></circle>
                        <circle id="Oval-Copy-25" cx="24" cy="18" r="2"></circle>
                        <circle id="Oval-Copy-30" cx="41" cy="21" r="4"></circle>
                        <circle id="Oval-Copy-26" cx="41" cy="35" r="2"></circle>
                        <circle id="Oval-Copy-27" cx="47" cy="6" r="2"></circle>
                        <circle id="Oval-Copy-28" cx="18" cy="2" r="2"></circle>
                    </g>
                    <g id="Group-3-Copy-3" transform="translate(24.500000, 159.500000) scale(-1, 1) translate(-24.500000, -159.500000) translate(0.000000, 139.000000)">
                        <circle id="Oval" cx="6" cy="21" r="6"></circle>
                        <circle id="Oval-Copy-24" cx="16" cy="39" r="2"></circle>
                        <circle id="Oval-Copy-25" cx="24" cy="18" r="2"></circle>
                        <circle id="Oval-Copy-30" cx="41" cy="21" r="4"></circle>
                        <circle id="Oval-Copy-26" cx="41" cy="35" r="2"></circle>
                        <circle id="Oval-Copy-27" cx="47" cy="6" r="2"></circle>
                        <circle id="Oval-Copy-28" cx="18" cy="2" r="2"></circle>
                    </g>
                    <g id="Group-3-Copy-5" transform="translate(727.500000, 139.500000) scale(-1, 1) translate(-727.500000, -139.500000) translate(710.000000, 119.000000)">
                        <circle id="Oval-Copy-24" cx="2" cy="39" r="2"></circle>
                        <circle id="Oval-Copy-25" cx="10" cy="18" r="2"></circle>
                        <circle id="Oval-Copy-26" cx="27" cy="35" r="2"></circle>
                        <circle id="Oval-Copy-27" cx="33" cy="6" r="2"></circle>
                        <circle id="Oval-Copy-28" cx="4" cy="2" r="2"></circle>
                    </g>
                    <g id="Group-3-Copy-4" transform="translate(66.500000, 118.500000) scale(-1, 1) translate(-66.500000, -118.500000) translate(49.000000, 98.000000)">
                        <circle id="Oval-Copy-24" cx="2" cy="39" r="2"></circle>
                        <circle id="Oval-Copy-25" cx="10" cy="18" r="2"></circle>
                        <circle id="Oval-Copy-30" cx="27" cy="21" r="4"></circle>
                        <circle id="Oval-Copy-26" cx="27" cy="35" r="2"></circle>
                        <circle id="Oval-Copy-27" cx="33" cy="6" r="2"></circle>
                        <circle id="Oval-Copy-28" cx="4" cy="2" r="2"></circle>
                    </g>
                    <g id="Group-3-Copy" transform="translate(531.000000, 10.000000) scale(-1, 1) translate(-531.000000, -10.000000) translate(519.000000, 0.000000)">
                        <circle id="Oval" cx="3" cy="10" r="3"></circle>
                        <circle id="Oval-Copy-24" cx="8" cy="19" r="1"></circle>
                        <circle id="Oval-Copy-25" cx="12" cy="9" r="1"></circle>
                        <circle id="Oval-Copy-30" cx="20" cy="10" r="2"></circle>
                        <circle id="Oval-Copy-26" cx="20" cy="17" r="1"></circle>
                        <circle id="Oval-Copy-27" cx="23" cy="3" r="1"></circle>
                        <circle id="Oval-Copy-28" cx="9" cy="1" r="1"></circle>
                    </g>
                </g>
            </g>
            <path d="M350.874513,729.172097 C355.43195,732.35322 362.951349,747.654529 362.951349,752.271352 L378.749525,755.572389 C379.634576,747.92888 383.391891,740.71507 390.02147,733.930958 C382.787013,736.132198 378.038248,739.73663 375.775174,744.744255 C377.758075,728.707871 378.749525,720.689679 378.749525,720.689679 C371.094622,730.276669 367.171385,737.667207 366.979816,742.861293 C365.301615,733.630633 346.317076,725.990973 350.874513,729.172097 Z" id="Path" fill="#A27DA8" transform="translate(370.095797, 738.131034) rotate(-90.000000) translate(-370.095797, -738.131034) "></path>
            <g id="Group-12" transform="translate(319.654442, 541.056707)" fill="#A27DA8">
                <path d="M197.078199,76.8879932 C204.054215,81.7213199 215.564074,104.969782 215.564074,111.984478 L239.746162,117 C241.100899,105.386626 246.852179,94.4261253 257,84.1184992 C245.926299,87.4630131 238.657418,92.939506 235.193357,100.547978 C238.228561,76.1826593 239.746162,64 239.746162,64 C228.028889,78.5662557 222.023635,89.7952717 221.730402,97.6870479 C219.1616,83.6621924 190.102183,72.0546664 197.078199,76.8879932 Z" id="Path-Copy-13" transform="translate(226.500000, 90.500000) rotate(-64.000000) translate(-226.500000, -90.500000) "></path>
                <path d="M283.530262,256.322412 C286.96109,258.693478 292.621676,270.098384 292.621676,273.539555 L304.514506,276 C305.18077,270.302873 308.009268,264.926024 313,259.869452 C307.553917,261.510157 303.979058,264.196739 302.275422,267.929197 C303.768145,255.976399 304.514506,250 304.514506,250 C298.751912,257.14571 295.798509,262.654284 295.654296,266.525722 C294.390951,259.645604 280.099434,253.951346 283.530262,256.322412 Z" id="Path-Copy-15" transform="translate(298.000000, 263.000000) rotate(-90.000000) translate(-298.000000, -263.000000) "></path>
                <path d="M96.7423239,411.05486 C102.108337,414.833661 115.705014,442.515756 115.705014,448 L134.786707,442.415308 C136.10551,432.349115 143.176608,420.960565 156,408.249658 C141.039849,415.012094 132.227481,421.367548 129.562895,427.316018 C133.045436,406.438673 134.786707,396 134.786707,396 C125.903207,406.036574 120.564468,416.475246 118.770489,427.316018 C116.794544,416.351078 91.376311,407.27606 96.7423239,411.05486 Z" id="Path-Copy-2" transform="translate(126.000000, 422.000000) rotate(-90.000000) translate(-126.000000, -422.000000) "></path>
                <path d="M168.449383,533.508217 C177.826978,540.074246 193.592802,578.470601 193.592802,588 L225.806317,588 C227.627439,572.22334 235.358666,557.333604 249,543.330791 C234.114041,547.874282 224.342758,555.314046 219.686152,565.650083 C223.766262,532.550028 225.806317,516 225.806317,516 C210.055227,535.788121 201.982592,551.042633 201.588409,561.763537 C198.135266,542.710903 159.071787,526.942188 168.449383,533.508217 Z" id="Path-Copy" transform="translate(208.000000, 552.000000) rotate(-114.000000) translate(-208.000000, -552.000000) "></path>
                <circle id="Oval" transform="translate(184.500000, 256.500000) rotate(-90.000000) translate(-184.500000, -256.500000) " cx="184.5" cy="256.5" r="8.5"></circle>
                <circle id="Oval-Copy-24" transform="translate(212.500000, 238.500000) rotate(-90.000000) translate(-212.500000, -238.500000) " cx="212.5" cy="238.5" r="3.5"></circle>
                <circle id="Oval-Copy-25" transform="translate(180.500000, 224.500000) rotate(-90.000000) translate(-180.500000, -224.500000) " cx="180.5" cy="224.5" r="3.5"></circle>
                <circle id="Oval-Copy-30" transform="translate(183.000000, 201.000000) rotate(-90.000000) translate(-183.000000, -201.000000) " cx="183" cy="201" r="6"></circle>
                <circle id="Oval-Copy-26" transform="translate(205.500000, 203.500000) rotate(-90.000000) translate(-205.500000, -203.500000) " cx="205.5" cy="203.5" r="3.5"></circle>
                <circle id="Oval-Copy-27" transform="translate(162.500000, 191.500000) rotate(-90.000000) translate(-162.500000, -191.500000) " cx="162.5" cy="191.5" r="3.5"></circle>
                <circle id="Oval-Copy-28" transform="translate(155.500000, 234.500000) rotate(-90.000000) translate(-155.500000, -234.500000) " cx="155.5" cy="234.5" r="3.5"></circle>
                <g id="Group-3-Copy-2" transform="translate(354.000000, 421.500000) rotate(-90.000000) translate(-354.000000, -421.500000) translate(302.500000, 378.500000)">
                    <circle id="Oval" cx="11.5" cy="43.5" r="11.5"></circle>
                    <circle id="Oval-Copy-24" cx="35.5" cy="81.5" r="4.5"></circle>
                    <circle id="Oval-Copy-25" cx="54.5" cy="38.5" r="4.5"></circle>
                    <circle id="Oval-Copy-30" cx="86" cy="42" r="8"></circle>
                    <circle id="Oval-Copy-26" cx="82.5" cy="71.5" r="4.5"></circle>
                    <circle id="Oval-Copy-27" cx="98.5" cy="14.5" r="4.5"></circle>
                    <circle id="Oval-Copy-28" cx="40.5" cy="4.5" r="4.5"></circle>
                </g>
                <g id="Group-3-Copy" transform="translate(24.500000, 487.500000) scale(-1, 1) rotate(-90.000000) translate(-24.500000, -487.500000) translate(0.000000, 467.000000)">
                    <circle id="Oval" cx="6" cy="21" r="6"></circle>
                    <circle id="Oval-Copy-24" cx="16" cy="39" r="2"></circle>
                    <circle id="Oval-Copy-25" cx="24" cy="18" r="2"></circle>
                    <circle id="Oval-Copy-30" cx="41" cy="21" r="4"></circle>
                    <circle id="Oval-Copy-26" cx="41" cy="35" r="2"></circle>
                    <circle id="Oval-Copy-27" cx="47" cy="6" r="2"></circle>
                    <circle id="Oval-Copy-28" cx="18" cy="2" r="2"></circle>
                </g>
                <circle id="Oval" transform="translate(159.000000, 739.000000) scale(-1, 1) rotate(-90.000000) translate(-159.000000, -739.000000) " cx="159" cy="739" r="6"></circle>
                <circle id="Oval-Copy-24" transform="translate(141.000000, 729.000000) scale(-1, 1) rotate(-90.000000) translate(-141.000000, -729.000000) " cx="141" cy="729" r="2"></circle>
                <circle id="Oval-Copy-25" transform="translate(162.000000, 721.000000) scale(-1, 1) rotate(-90.000000) translate(-162.000000, -721.000000) " cx="162" cy="721" r="2"></circle>
                <circle id="Oval-Copy-30" transform="translate(159.000000, 704.000000) scale(-1, 1) rotate(-90.000000) translate(-159.000000, -704.000000) " cx="159" cy="704" r="4"></circle>
                <circle id="Oval-Copy-26" transform="translate(145.000000, 704.000000) scale(-1, 1) rotate(-90.000000) translate(-145.000000, -704.000000) " cx="145" cy="704" r="2"></circle>
                <circle id="Oval-Copy-27" transform="translate(174.000000, 698.000000) scale(-1, 1) rotate(-90.000000) translate(-174.000000, -698.000000) " cx="174" cy="698" r="2"></circle>
                <circle id="Oval-Copy-28" transform="translate(178.000000, 727.000000) scale(-1, 1) rotate(-90.000000) translate(-178.000000, -727.000000) " cx="178" cy="727" r="2"></circle>
                <circle id="Oval-Copy-24" transform="translate(121.000000, 33.000000) scale(-1, 1) rotate(-90.000000) translate(-121.000000, -33.000000) " cx="121" cy="33" r="2"></circle>
                <circle id="Oval-Copy-25" transform="translate(142.000000, 25.000000) scale(-1, 1) rotate(-90.000000) translate(-142.000000, -25.000000) " cx="142" cy="25" r="2"></circle>
                <circle id="Oval-Copy-26" transform="translate(125.000000, 8.000000) scale(-1, 1) rotate(-90.000000) translate(-125.000000, -8.000000) " cx="125" cy="8" r="2"></circle>
                <circle id="Oval-Copy-27" transform="translate(154.000000, 2.000000) scale(-1, 1) rotate(-90.000000) translate(-154.000000, -2.000000) " cx="154" cy="2" r="2"></circle>
                <circle id="Oval-Copy-28" transform="translate(158.000000, 31.000000) scale(-1, 1) rotate(-90.000000) translate(-158.000000, -31.000000) " cx="158" cy="31" r="2"></circle>
                <circle id="Oval-Copy-24" transform="translate(100.000000, 694.000000) scale(-1, 1) rotate(-90.000000) translate(-100.000000, -694.000000) " cx="100" cy="694" r="2"></circle>
                <circle id="Oval-Copy-25" transform="translate(121.000000, 686.000000) scale(-1, 1) rotate(-90.000000) translate(-121.000000, -686.000000) " cx="121" cy="686" r="2"></circle>
                <circle id="Oval-Copy-30" transform="translate(118.000000, 669.000000) scale(-1, 1) rotate(-90.000000) translate(-118.000000, -669.000000) " cx="118" cy="669" r="4"></circle>
                <circle id="Oval-Copy-26" transform="translate(104.000000, 669.000000) scale(-1, 1) rotate(-90.000000) translate(-104.000000, -669.000000) " cx="104" cy="669" r="2"></circle>
                <circle id="Oval-Copy-27" transform="translate(133.000000, 663.000000) scale(-1, 1) rotate(-90.000000) translate(-133.000000, -663.000000) " cx="133" cy="663" r="2"></circle>
                <circle id="Oval-Copy-28" transform="translate(137.000000, 692.000000) scale(-1, 1) rotate(-90.000000) translate(-137.000000, -692.000000) " cx="137" cy="692" r="2"></circle>
                <circle id="Oval" transform="translate(10.000000, 223.000000) scale(-1, 1) rotate(-90.000000) translate(-10.000000, -223.000000) " cx="10" cy="223" r="3"></circle>
                <circle id="Oval-Copy-24" transform="translate(1.000000, 218.000000) scale(-1, 1) rotate(-90.000000) translate(-1.000000, -218.000000) " cx="1" cy="218" r="1"></circle>
                <circle id="Oval-Copy-25" transform="translate(11.000000, 214.000000) scale(-1, 1) rotate(-90.000000) translate(-11.000000, -214.000000) " cx="11" cy="214" r="1"></circle>
                <circle id="Oval-Copy-30" transform="translate(10.000000, 206.000000) scale(-1, 1) rotate(-90.000000) translate(-10.000000, -206.000000) " cx="10" cy="206" r="2"></circle>
                <circle id="Oval-Copy-26" transform="translate(3.000000, 206.000000) scale(-1, 1) rotate(-90.000000) translate(-3.000000, -206.000000) " cx="3" cy="206" r="1"></circle>
                <circle id="Oval-Copy-27" transform="translate(17.000000, 203.000000) scale(-1, 1) rotate(-90.000000) translate(-17.000000, -203.000000) " cx="17" cy="203" r="1"></circle>
                <circle id="Oval-Copy-28" transform="translate(19.000000, 217.000000) scale(-1, 1) rotate(-90.000000) translate(-19.000000, -217.000000) " cx="19" cy="217" r="1"></circle>
            </g>
            <g id="Group-12-Copy" transform="translate(1320.154442, 911.556707) rotate(-180.000000) translate(-1320.154442, -911.556707) translate(1121.654442, 539.056707)" fill="#A27DA8">
                <path d="M197.078199,76.8879932 C204.054215,81.7213199 215.564074,104.969782 215.564074,111.984478 L239.746162,117 C241.100899,105.386626 246.852179,94.4261253 257,84.1184992 C245.926299,87.4630131 238.657418,92.939506 235.193357,100.547978 C238.228561,76.1826593 239.746162,64 239.746162,64 C228.028889,78.5662557 222.023635,89.7952717 221.730402,97.6870479 C219.1616,83.6621924 190.102183,72.0546664 197.078199,76.8879932 Z" id="Path-Copy-13" transform="translate(226.500000, 90.500000) rotate(-90.000000) translate(-226.500000, -90.500000) "></path>
                <path d="M283.530262,256.322412 C286.96109,258.693478 292.621676,270.098384 292.621676,273.539555 L304.514506,276 C305.18077,270.302873 308.009268,264.926024 313,259.869452 C307.553917,261.510157 303.979058,264.196739 302.275422,267.929197 C303.768145,255.976399 304.514506,250 304.514506,250 C298.751912,257.14571 295.798509,262.654284 295.654296,266.525722 C294.390951,259.645604 280.099434,253.951346 283.530262,256.322412 Z" id="Path-Copy-15" transform="translate(298.000000, 263.000000) rotate(-90.000000) translate(-298.000000, -263.000000) "></path>
                <path d="M96.7423239,411.05486 C102.108337,414.833661 115.705014,442.515756 115.705014,448 L134.786707,442.415308 C136.10551,432.349115 143.176608,420.960565 156,408.249658 C141.039849,415.012094 132.227481,421.367548 129.562895,427.316018 C133.045436,406.438673 134.786707,396 134.786707,396 C125.903207,406.036574 120.564468,416.475246 118.770489,427.316018 C116.794544,416.351078 91.376311,407.27606 96.7423239,411.05486 Z" id="Path-Copy-2" transform="translate(126.000000, 422.000000) rotate(-90.000000) translate(-126.000000, -422.000000) "></path>
                <path d="M159.449383,509.508217 C168.826978,516.074246 184.592802,554.470601 184.592802,564 L216.806317,564 C218.627439,548.22334 226.358666,533.333604 240,519.330791 C225.114041,523.874282 215.342758,531.314046 210.686152,541.650083 C214.766262,508.550028 216.806317,492 216.806317,492 C201.055227,511.788121 192.982592,527.042633 192.588409,537.763537 C189.135266,518.710903 150.071787,502.942188 159.449383,509.508217 Z" id="Path-Copy" transform="translate(199.000000, 528.000000) rotate(-90.000000) translate(-199.000000, -528.000000) "></path>
                <circle id="Oval" transform="translate(184.500000, 256.500000) rotate(-90.000000) translate(-184.500000, -256.500000) " cx="184.5" cy="256.5" r="8.5"></circle>
                <circle id="Oval-Copy-24" transform="translate(212.500000, 238.500000) rotate(-90.000000) translate(-212.500000, -238.500000) " cx="212.5" cy="238.5" r="3.5"></circle>
                <circle id="Oval-Copy-25" transform="translate(180.500000, 224.500000) rotate(-90.000000) translate(-180.500000, -224.500000) " cx="180.5" cy="224.5" r="3.5"></circle>
                <circle id="Oval-Copy-30" transform="translate(183.000000, 201.000000) rotate(-90.000000) translate(-183.000000, -201.000000) " cx="183" cy="201" r="6"></circle>
                <circle id="Oval-Copy-26" transform="translate(205.500000, 203.500000) rotate(-90.000000) translate(-205.500000, -203.500000) " cx="205.5" cy="203.5" r="3.5"></circle>
                <circle id="Oval-Copy-27" transform="translate(162.500000, 191.500000) rotate(-90.000000) translate(-162.500000, -191.500000) " cx="162.5" cy="191.5" r="3.5"></circle>
                <circle id="Oval-Copy-28" transform="translate(155.500000, 234.500000) rotate(-90.000000) translate(-155.500000, -234.500000) " cx="155.5" cy="234.5" r="3.5"></circle>
                <g id="Group-3-Copy-2" transform="translate(354.000000, 421.500000) rotate(-90.000000) translate(-354.000000, -421.500000) translate(302.500000, 378.500000)">
                    <circle id="Oval" cx="11.5" cy="43.5" r="11.5"></circle>
                    <circle id="Oval-Copy-24" cx="35.5" cy="81.5" r="4.5"></circle>
                    <circle id="Oval-Copy-25" cx="54.5" cy="38.5" r="4.5"></circle>
                    <circle id="Oval-Copy-30" cx="86" cy="42" r="8"></circle>
                    <circle id="Oval-Copy-26" cx="82.5" cy="71.5" r="4.5"></circle>
                    <circle id="Oval-Copy-27" cx="98.5" cy="14.5" r="4.5"></circle>
                    <circle id="Oval-Copy-28" cx="40.5" cy="4.5" r="4.5"></circle>
                </g>
                <g id="Group-3-Copy" transform="translate(24.500000, 487.500000) scale(-1, 1) rotate(-90.000000) translate(-24.500000, -487.500000) translate(0.000000, 467.000000)">
                    <circle id="Oval" cx="6" cy="21" r="6"></circle>
                    <circle id="Oval-Copy-24" cx="16" cy="39" r="2"></circle>
                    <circle id="Oval-Copy-25" cx="24" cy="18" r="2"></circle>
                    <circle id="Oval-Copy-30" cx="41" cy="21" r="4"></circle>
                    <circle id="Oval-Copy-26" cx="41" cy="35" r="2"></circle>
                    <circle id="Oval-Copy-27" cx="47" cy="6" r="2"></circle>
                    <circle id="Oval-Copy-28" cx="18" cy="2" r="2"></circle>
                </g>
                <circle id="Oval" transform="translate(159.000000, 739.000000) scale(-1, 1) rotate(-90.000000) translate(-159.000000, -739.000000) " cx="159" cy="739" r="6"></circle>
                <circle id="Oval-Copy-24" transform="translate(141.000000, 729.000000) scale(-1, 1) rotate(-90.000000) translate(-141.000000, -729.000000) " cx="141" cy="729" r="2"></circle>
                <circle id="Oval-Copy-25" transform="translate(162.000000, 721.000000) scale(-1, 1) rotate(-90.000000) translate(-162.000000, -721.000000) " cx="162" cy="721" r="2"></circle>
                <circle id="Oval-Copy-30" transform="translate(159.000000, 704.000000) scale(-1, 1) rotate(-90.000000) translate(-159.000000, -704.000000) " cx="159" cy="704" r="4"></circle>
                <circle id="Oval-Copy-26" transform="translate(145.000000, 704.000000) scale(-1, 1) rotate(-90.000000) translate(-145.000000, -704.000000) " cx="145" cy="704" r="2"></circle>
                <circle id="Oval-Copy-27" transform="translate(174.000000, 698.000000) scale(-1, 1) rotate(-90.000000) translate(-174.000000, -698.000000) " cx="174" cy="698" r="2"></circle>
                <circle id="Oval-Copy-28" transform="translate(178.000000, 727.000000) scale(-1, 1) rotate(-90.000000) translate(-178.000000, -727.000000) " cx="178" cy="727" r="2"></circle>
                <circle id="Oval-Copy-24" transform="translate(121.000000, 33.000000) scale(-1, 1) rotate(-90.000000) translate(-121.000000, -33.000000) " cx="121" cy="33" r="2"></circle>
                <circle id="Oval-Copy-25" transform="translate(142.000000, 25.000000) scale(-1, 1) rotate(-90.000000) translate(-142.000000, -25.000000) " cx="142" cy="25" r="2"></circle>
                <circle id="Oval-Copy-26" transform="translate(125.000000, 8.000000) scale(-1, 1) rotate(-90.000000) translate(-125.000000, -8.000000) " cx="125" cy="8" r="2"></circle>
                <circle id="Oval-Copy-27" transform="translate(154.000000, 2.000000) scale(-1, 1) rotate(-90.000000) translate(-154.000000, -2.000000) " cx="154" cy="2" r="2"></circle>
                <circle id="Oval-Copy-28" transform="translate(158.000000, 31.000000) scale(-1, 1) rotate(-90.000000) translate(-158.000000, -31.000000) " cx="158" cy="31" r="2"></circle>
                <circle id="Oval-Copy-24" transform="translate(100.000000, 694.000000) scale(-1, 1) rotate(-90.000000) translate(-100.000000, -694.000000) " cx="100" cy="694" r="2"></circle>
                <circle id="Oval-Copy-25" transform="translate(121.000000, 686.000000) scale(-1, 1) rotate(-90.000000) translate(-121.000000, -686.000000) " cx="121" cy="686" r="2"></circle>
                <circle id="Oval-Copy-30" transform="translate(118.000000, 669.000000) scale(-1, 1) rotate(-90.000000) translate(-118.000000, -669.000000) " cx="118" cy="669" r="4"></circle>
                <circle id="Oval-Copy-26" transform="translate(104.000000, 669.000000) scale(-1, 1) rotate(-90.000000) translate(-104.000000, -669.000000) " cx="104" cy="669" r="2"></circle>
                <circle id="Oval-Copy-27" transform="translate(133.000000, 663.000000) scale(-1, 1) rotate(-90.000000) translate(-133.000000, -663.000000) " cx="133" cy="663" r="2"></circle>
                <circle id="Oval-Copy-28" transform="translate(137.000000, 692.000000) scale(-1, 1) rotate(-90.000000) translate(-137.000000, -692.000000) " cx="137" cy="692" r="2"></circle>
                <circle id="Oval" transform="translate(10.000000, 223.000000) scale(-1, 1) rotate(-90.000000) translate(-10.000000, -223.000000) " cx="10" cy="223" r="3"></circle>
                <circle id="Oval-Copy-24" transform="translate(1.000000, 218.000000) scale(-1, 1) rotate(-90.000000) translate(-1.000000, -218.000000) " cx="1" cy="218" r="1"></circle>
                <circle id="Oval-Copy-25" transform="translate(11.000000, 214.000000) scale(-1, 1) rotate(-90.000000) translate(-11.000000, -214.000000) " cx="11" cy="214" r="1"></circle>
                <circle id="Oval-Copy-30" transform="translate(10.000000, 206.000000) scale(-1, 1) rotate(-90.000000) translate(-10.000000, -206.000000) " cx="10" cy="206" r="2"></circle>
                <circle id="Oval-Copy-26" transform="translate(3.000000, 206.000000) scale(-1, 1) rotate(-90.000000) translate(-3.000000, -206.000000) " cx="3" cy="206" r="1"></circle>
                <circle id="Oval-Copy-27" transform="translate(17.000000, 203.000000) scale(-1, 1) rotate(-90.000000) translate(-17.000000, -203.000000) " cx="17" cy="203" r="1"></circle>
                <circle id="Oval-Copy-28" transform="translate(19.000000, 217.000000) scale(-1, 1) rotate(-90.000000) translate(-19.000000, -217.000000) " cx="19" cy="217" r="1"></circle>
            </g>
        </g>
        <circle id="Oval-Copy-9" stroke="#000000" stroke-width="3" cx="648" cy="648" r="646.5"></circle>
        <g id="Group-14" transform="translate(1039.153753, 249.988606) rotate(-300.000000) translate(-1039.153753, -249.988606) translate(959.653753, 157.488606)">
            <path d="M59.0233897,120.993856 C68.4009854,127.559885 84.1668087,165.956239 84.1668087,175.485639 L116.380324,175.485639 C118.201446,159.708979 125.932674,144.819243 139.574007,130.81643 C124.688048,135.359921 114.916766,142.799684 110.260159,153.135722 C114.340269,120.035666 116.380324,103.485639 116.380324,103.485639 C100.629235,123.27376 92.5565987,138.528272 92.1624165,149.249175 C88.709273,130.196541 49.6457941,114.427827 59.0233897,120.993856 Z" id="Path-Copy-17" fill="#94D8A5" transform="translate(98.574007, 139.485639) rotate(-345.000000) translate(-98.574007, -139.485639) "></path>
            <path d="M21.264463,53.4389223 C35.1021346,63.1055758 55.6677475,94.8623691 55.6677475,108.891762 L104.398252,130.064323 C108.087292,109.236649 119.996455,88.5151865 140.12574,67.8999343 C118.159874,74.5889622 103.741274,85.5419479 96.8699401,100.758891 C102.89059,52.0282545 105.900915,27.662936 105.900915,27.662936 C82.6584535,56.7954473 70.7463933,79.2534793 70.1647342,95.0370318 C65.069242,66.9873207 7.42679144,43.7722688 21.264463,53.4389223 Z" id="Path-Copy" fill="#C0A4C4" transform="translate(79.625740, 78.863630) scale(1, -1) rotate(223.000000) translate(-79.625740, -78.863630) "></path>
        </g>
        <g id="Group-14-Copy" transform="translate(1030.724804, 1016.187634) rotate(-216.000000) translate(-1030.724804, -1016.187634) translate(951.224804, 923.187634)">
            <path d="M58.5674445,121.267525 C67.9450401,127.833554 83.7108635,166.229908 83.7108635,175.759308 L115.924379,175.759308 C117.745501,159.982648 125.476728,145.092912 139.118062,131.090099 C124.232103,135.63359 114.46082,143.073354 109.804214,153.409391 C113.884324,120.309335 115.924379,103.759308 115.924379,103.759308 C100.173289,123.547429 92.1006535,138.801941 91.7064712,149.522844 C88.2533277,130.47021 49.1898489,114.701496 58.5674445,121.267525 Z" id="Path-Copy-17" fill="#C0A4C4" transform="translate(98.118062, 139.759308) rotate(-345.000000) translate(-98.118062, -139.759308) "></path>
            <path d="M20.8085178,53.7125913 C34.6461894,63.3792448 55.2118022,95.1360381 55.2118022,109.165431 L103.942307,130.337992 C107.631347,109.510318 119.54051,88.7888555 139.669795,68.1736033 C117.703928,74.8626312 103.285328,85.815617 96.4139948,101.03256 C102.434645,52.3019235 105.444969,27.936605 105.444969,27.936605 C82.2025082,57.0691163 70.2904481,79.5271483 69.7087889,95.3107008 C64.6132967,67.2609897 6.97084619,44.0459378 20.8085178,53.7125913 Z" id="Path-Copy" fill="#94D8A5" transform="translate(79.169795, 79.137299) scale(1, -1) rotate(223.000000) translate(-79.169795, -79.137299) "></path>
        </g>
    </g>
</svg>