<?xml version="1.0" encoding="UTF-8"?>
<svg width="375px" height="667px" viewBox="0 0 375 667" version="1.1" xmlns="http://www.w3.org/2000/svg" xmlns:xlink="http://www.w3.org/1999/xlink">
    <title>Group 2</title>
    <g id="Page-1" stroke="none" stroke-width="1" fill="none" fill-rule="evenodd">
        <g id="iPhone-8-Copy-5">
            <g id="Group-2" transform="translate(-168.000000, -117.000000)">
                <rect id="Rectangle" stroke="#979797" x="168.5" y="117.5" width="374" height="666"></rect>
                <rect id="Rectangle" stroke="#979797" fill="#45254A" x="168.5" y="118.5" width="374" height="665"></rect>
                <g id="Group">
                    <g id="Group-16" transform="translate(0.000000, 262.000000)">
                        <path d="M29.5006242,221.460317 C141.580145,289.460317 241.422818,298.793651 329.028642,249.460317 C416.634466,200.126984 518.215775,192.793651 633.772569,227.460317 L633.772569,318.960317 C512.481399,290.626984 411.769408,300.460317 331.636596,348.460317 C251.503784,396.460317 140.958252,384.293651 -9.09494702e-13,311.960317 L29.5006242,221.460317 Z" id="Path-13" fill="#F88BD9"></path>
                        <path d="M29.5006242,162.460317 C141.580145,230.460317 241.422818,239.793651 329.028642,190.460317 C416.634466,141.126984 518.215775,133.793651 633.772569,168.460317 L633.772569,259.960317 C512.481399,231.626984 411.769408,241.460317 331.636596,289.460317 C251.503784,337.460317 140.958252,325.293651 -9.09494702e-13,252.960317 L29.5006242,162.460317 Z" id="Path-13-Copy" fill="#F95757"></path>
                        <path d="M29.5006242,94.4603175 C141.580145,162.460317 241.422818,171.793651 329.028642,122.460317 C416.634466,73.1269841 518.215775,65.7936508 633.772569,100.460317 L633.772569,191.960317 C512.481399,163.626984 411.769408,173.460317 331.636596,221.460317 C251.503784,269.460317 140.958252,257.293651 -9.09494702e-13,184.960317 L29.5006242,94.4603175 Z" id="Path-13-Copy-2" fill="#F8D658"></path>
                        <path d="M29.5006242,15.4603175 C141.580145,83.4603175 241.422818,92.7936508 329.028642,43.4603175 C416.634466,-5.87301587 518.215775,-13.2063492 633.772569,21.4603175 L633.772569,112.960317 C512.481399,84.6269841 411.769408,94.4603175 331.636596,142.460317 C251.503784,190.460317 140.958252,178.293651 -9.09494702e-13,105.960317 L29.5006242,15.4603175 Z" id="Path-13-Copy-3" fill="#6088F9"></path>
                    </g>
                    <g id="Group-16-Copy">
                        <path d="M29.5006242,221.460317 C141.580145,289.460317 241.422818,298.793651 329.028642,249.460317 C416.634466,200.126984 518.215775,192.793651 633.772569,227.460317 L633.772569,318.960317 C512.481399,290.626984 411.769408,300.460317 331.636596,348.460317 C251.503784,396.460317 140.958252,384.293651 -9.09494702e-13,311.960317 L29.5006242,221.460317 Z" id="Path-13" fill="#F88BD9"></path>
                        <path d="M29.5006242,162.460317 C141.580145,230.460317 241.422818,239.793651 329.028642,190.460317 C416.634466,141.126984 518.215775,133.793651 633.772569,168.460317 L633.772569,259.960317 C512.481399,231.626984 411.769408,241.460317 331.636596,289.460317 C251.503784,337.460317 140.958252,325.293651 -9.09494702e-13,252.960317 L29.5006242,162.460317 Z" id="Path-13-Copy" fill="#F95757"></path>
                        <path d="M29.5006242,94.4603175 C141.580145,162.460317 241.422818,171.793651 329.028642,122.460317 C416.634466,73.1269841 518.215775,65.7936508 633.772569,100.460317 L633.772569,191.960317 C512.481399,163.626984 411.769408,173.460317 331.636596,221.460317 C251.503784,269.460317 140.958252,257.293651 -9.09494702e-13,184.960317 L29.5006242,94.4603175 Z" id="Path-13-Copy-2" fill="#F8D658"></path>
                        <path d="M29.5006242,15.4603175 C141.580145,83.4603175 241.422818,92.7936508 329.028642,43.4603175 C416.634466,-5.87301587 518.215775,-13.2063492 633.772569,21.4603175 L633.772569,112.960317 C512.481399,84.6269841 411.769408,94.4603175 331.636596,142.460317 C251.503784,190.460317 140.958252,178.293651 -9.09494702e-13,105.960317 L29.5006242,15.4603175 Z" id="Path-13-Copy-3" fill="#6088F9"></path>
                    </g>
                </g>
                <path d="M154,253.371966 C175.200748,312.62741 206.560439,339.020246 248.079075,332.550472 C310.357028,322.845811 285.0497,232 344.006047,191 C402.962394,150 438.729551,167.505052 474.006047,179.509136 C497.523711,187.511859 521.188362,193.093108 545,196.252883 L545,87 L154,87 L154,253.371966 Z" id="Path-12-Copy" fill="#000000" style="mix-blend-mode: overlay;" opacity="0.352887835"></path>
                <path d="M168,239.371966 C189.200748,298.62741 220.560439,325.020246 262.079075,318.550472 C324.357028,308.845811 299.0497,218 358.006047,177 C416.962394,136 452.729551,153.505052 488.006047,165.509136 C511.523711,173.511859 529.946118,177.342147 543.273267,177 L543.006047,73 L168,73 L168,239.371966 Z" id="Path-12" fill="#FFFFFF"></path>
                <path d="M354.99522,525 C430.417874,525 497.912825,535.969235 543.038158,553.240501 L543.26722,784 L168.035,783.999 L168.018,669.243 L168.021245,656.165876 L168.016,656.163 L168,552.842147 C213.118846,535.800743 280.154067,525 354.99522,525 Z" id="Combined-Shape" fill="#FFFFFF"></path>
            </g>
        </g>
    </g>
</svg>