<?xml version="1.0" encoding="UTF-8"?>
<svg width="127px" height="136px" viewBox="0 0 127 136" version="1.1" xmlns="http://www.w3.org/2000/svg" xmlns:xlink="http://www.w3.org/1999/xlink">
    <title>Group 16</title>
    <g id="Page-1" stroke="none" stroke-width="1" fill="none" fill-rule="evenodd">
        <g id="Group-16" transform="translate(1.000000, 2.000000)">
            <ellipse id="Oval-Copy-10" fill="#D4D4D4" cx="62" cy="124.973214" rx="51" ry="8.65178571"></ellipse>
            <g id="Group-4-Copy-3">
                <g id="Group-2">
                    <path d="M62.5,66.0720168 C104.166667,66.0720168 125,75.4854204 125,94.3122277 C125,113.139035 106.076802,123.291538 68.230405,124.769735 C22.7434683,124.769735 0,118.274171 0,105.283043 C0,92.2919154 17.8596565,85.7963514 53.5789695,85.7963514 C78.0590937,85.7963514 59.3240556,84.6837832 34.9056604,82.9332006 C21.6981132,81.9863364 15.0943396,76.3659418 15.0943396,66.0720168 C15.0943396,50.6311293 43.6594633,46.8229674 62.5,46.8229674 C47.9954172,46.8229674 40.7431257,40.3274034 40.7431257,27.3362754 C41.6964042,17.2667573 50.8198455,8.15466549 68.1134497,1.41838379e-12 C74.0540957,24.1118653 106.405171,30.2355805 106.405171,46.8229674 C106.405171,57.8812253 97.8168461,63.8995975 80.6401973,64.878084 C51.2517551,66.5522285 33.0646276,66.0720168 62.5,66.0720168 Z" id="Path-3-Copy-2" fill="#9A7663"></path>
                    <path d="M62.5,66.0720168 C104.166667,66.0720168 125,75.4854204 125,94.3122277 C125,113.139035 106.076802,123.291538 68.230405,124.769735 C65.2976383,124.769735 62.4594166,124.742733 59.7157398,124.688729 C96.3215201,122.952615 114.622642,112.826995 114.622642,94.3122277 C114.622642,75.8781733 94.649465,66.4688663 54.703112,66.0843068 C56.793148,66.0774159 59.3788611,66.0720168 62.5,66.0720168 Z M68.1134497,-3.10693592e-13 C74.0540957,24.1118653 106.405171,30.2355805 106.405171,46.8229674 C106.405171,57.8812253 97.8168461,63.8995975 80.6401973,64.878084 C67.3054016,65.6377151 56.2767614,65.9538018 50.956662,66.0724595 L50.9461538,66.0722775 C43.449024,66.0756322 39.2958514,66.110515 37.7982228,66.1271286 L37.7012453,66.128 L37.8245956,66.1265007 C40.806303,66.0783944 53.3461568,65.8248911 69.3845823,64.9276646 L70.2628388,64.878084 C87.4394876,63.8995975 96.0278121,57.8812253 96.0278121,46.8229674 C96.0278121,31.0329034 67.3555275,24.112463 66.2266655,0.910129603 C66.8445054,0.604949966 67.4733815,0.301819205 68.1134497,-3.10693592e-13 Z" id="Combined-Shape" fill="#7F5D4A"></path>
                    <path d="M62.5,66.0720168 C104.166667,66.0720168 125,75.4854204 125,94.3122277 C125,113.139035 106.076802,123.291538 68.230405,124.769735 C22.7434683,124.769735 0,118.274171 0,105.283043 C0,92.2919154 17.8596565,85.7963514 53.5789695,85.7963514 C78.0590937,85.7963514 59.3240556,84.6837832 34.9056604,82.9332006 C21.6981132,81.9863364 15.0943396,76.3659418 15.0943396,66.0720168 C15.0943396,50.6311293 43.6594633,46.8229674 62.5,46.8229674 C47.9954172,46.8229674 40.7431257,40.3274034 40.7431257,27.3362754 C41.6964042,17.2667573 50.8198455,8.15466549 68.1134497,1.41838379e-12 C74.0540957,24.1118653 106.405171,30.2355805 106.405171,46.8229674 C106.405171,57.8812253 97.8168461,63.8995975 80.6401973,64.878084 C51.2517551,66.5522285 33.0646276,66.0720168 62.5,66.0720168 Z" id="Path-3-Copy-2" stroke="#000000" stroke-width="2" stroke-linecap="round"></path>
                </g>
                <g id="Group-3" transform="translate(57.000000, 18.000000)">
                    <ellipse id="Oval" fill="#FFFFFF" cx="4.04761905" cy="6.25" rx="4.04761905" ry="6.25"></ellipse>
                    <ellipse id="Oval" fill="#000000" cx="5.23809524" cy="9.13461538" rx="1.9047619" ry="1.92307692"></ellipse>
                    <ellipse id="Oval" fill="#FFFFFF" cx="4.28571429" cy="8.17307692" rx="1" ry="1"></ellipse>
                    <ellipse id="Oval-Copy" fill="#FFFFFF" cx="14.047619" cy="6.00961538" rx="3.57142857" ry="5.52884615"></ellipse>
                    <ellipse id="Oval-Copy-3" fill="#000000" cx="14.7619048" cy="8.65384615" rx="1.9047619" ry="1.92307692"></ellipse>
                    <ellipse id="Oval" fill="#FFFFFF" cx="13.8095238" cy="7.69230769" rx="1" ry="1"></ellipse>
                    <g id="Group-5" transform="translate(10.899603, 19.390723) rotate(-4.000000) translate(-10.899603, -19.390723) translate(1.899603, 14.890723)">
                        <path d="M17.0155121,1.44280776 C16.5618039,5.05483796 13.0259716,7.86615526 8.7313804,7.86615526 C4.51787836,7.86615526 1.03475249,5.16000057 0.476229944,1.64654162 C2.78903052,1.93643559 5.33849357,2.09692449 8.01709469,2.09692449 C11.1445759,2.09692449 14.0960105,1.8781391 16.6996503,1.49042071 Z" id="Combined-Shape-Copy-2" fill="#000000" transform="translate(8.745856, 4.654984) rotate(-7.000000) translate(-8.745856, -4.654984) "></path>
                        <g id="Group-4">
                            <path d="M16.1626395,0.970011726 C16.167177,1.86949315 15.9829057,2.7408032 15.6412422,3.54688384 C13.5252513,4.11683452 11.1493241,4.58132564 8.62410981,4.89138296 C6.51162823,5.15076309 4.47437197,5.28000219 2.58074089,5.29165444 C2.04300971,4.61220903 1.6376631,3.83308464 1.40158292,2.98068048 C3.50308889,3.00279189 5.80083807,2.8759908 8.19522986,2.58199646 C11.0993855,2.22541098 13.8060874,1.66456442 16.1497875,0.973869321 L16.1626395,0.970011726 Z" id="Combined-Shape" fill="#FFFFFF"></path>
                            <path d="M9.83140319,5.20552471 C11.2772729,5.04831182 12.6361031,5.33228959 13.171212,5.8576278 C11.8564048,6.41241871 10.2943208,6.82981464 8.59668636,7.03825794 C8.19004679,7.088187 7.78805319,7.12460178 7.39244686,7.14808886 C7.29550625,7.05292466 7.22608699,6.94995437 7.18797722,6.84028363 C6.93881818,6.1232639 8.12232029,5.3913574 9.83140319,5.20552471 Z" id="Combined-Shape" fill="#DF6E6E" transform="translate(10.163034, 6.155197) rotate(1.000000) translate(-10.163034, -6.155197) "></path>
                            <path d="M15.4869036,2.53853097 C13.1883637,2.81753315 10.6647857,2.97214884 8.01709469,2.97214884 C5.86149432,2.97214884 3.78818716,2.86968988 1.8513851,2.68078373 C2.27513742,3.65143728 2.97644881,4.50373099 3.86374883,5.17224252 C5.16633776,6.15364194 6.87017755,6.74137961 8.7313804,6.74137961 C10.636854,6.74137961 12.3785679,6.12630812 13.6551164,5.1048901 C14.5185696,4.41400633 15.1687926,3.53451245 15.4869036,2.53853097 Z" id="Combined-Shape" stroke="#000000" stroke-width="2" transform="translate(8.745856, 4.530209) rotate(-7.000000) translate(-8.745856, -4.530209) "></path>
                        </g>
                    </g>
                </g>
            </g>
        </g>
    </g>
</svg>